<svg width="173" height="64" viewBox="0 0 173 64" fill="none" xmlns="http://www.w3.org/2000/svg">
<g clip-path="url(#clip0_2015_1068)">
<path fill-rule="evenodd" clip-rule="evenodd" d="M112.746 22.8958C112.746 22.9376 112.508 22.9673 112.175 22.9673C111.861 22.9673 111.584 23 111.56 23.0393C111.535 23.0786 111.371 23.1108 111.196 23.1108C111.02 23.1108 110.876 23.1397 110.876 23.1749C110.876 23.21 110.763 23.2598 110.624 23.2857C110.486 23.3117 110.373 23.3636 110.373 23.4012C110.373 23.4389 110.308 23.4699 110.229 23.4699C110.149 23.4699 110.085 23.5021 110.085 23.5414C110.085 23.5807 110.004 23.6134 109.905 23.6134C109.806 23.6134 109.725 23.6456 109.725 23.6849C109.725 23.7243 109.665 23.7565 109.591 23.7565C109.518 23.7565 109.397 23.8372 109.322 23.936C109.248 24.0347 109.143 24.1155 109.088 24.1155C109.033 24.1155 108.849 24.2607 108.678 24.4381C108.508 24.6159 108.334 24.7611 108.292 24.7611C108.249 24.7611 108.214 24.8097 108.214 24.8687C108.214 24.9277 108.182 24.9762 108.143 24.9762C108.103 24.9762 108.071 25.0406 108.071 25.1197C108.071 25.1988 108.038 25.2632 107.999 25.2632C107.959 25.2632 107.927 25.344 107.927 25.4428C107.927 25.5541 107.886 25.6218 107.819 25.6218C107.752 25.6218 107.711 25.6896 107.711 25.8013C107.711 25.9001 107.679 25.9804 107.639 25.9804C107.599 25.9804 107.567 26.0754 107.567 26.1917C107.567 26.3076 107.535 26.4227 107.495 26.447C107.456 26.4713 107.423 26.6633 107.423 26.8738C107.423 27.1479 107.393 27.2684 107.315 27.2981C107.228 27.3315 107.207 27.5014 107.207 28.2023C107.207 28.9216 107.226 29.0655 107.315 29.0655C107.399 29.0655 107.423 29.1613 107.423 29.4961C107.423 29.735 107.455 29.9262 107.495 29.9262C107.535 29.9262 107.567 30.0392 107.567 30.1773C107.567 30.3158 107.599 30.4288 107.639 30.4288C107.679 30.4288 107.711 30.4785 107.711 30.5396C107.711 30.6007 107.792 30.7254 107.891 30.8171C107.99 30.9083 108.071 31.0213 108.071 31.0677C108.071 31.1861 108.828 31.9351 108.948 31.9351C109.002 31.9351 109.093 31.9995 109.15 32.0786C109.207 32.1577 109.327 32.2221 109.417 32.2221C109.508 32.2221 109.581 32.2569 109.581 32.2991C109.581 32.4255 109.776 32.5807 109.936 32.5807C110.018 32.5807 110.085 32.613 110.085 32.6527C110.085 32.692 110.198 32.7243 110.337 32.7243C110.512 32.7243 110.588 32.7569 110.588 32.8318C110.588 32.9071 110.664 32.9393 110.84 32.9393C110.978 32.9393 111.092 32.972 111.092 33.0113C111.092 33.0506 111.187 33.0829 111.304 33.0829C111.42 33.0829 111.535 33.1151 111.56 33.1548C111.584 33.1942 111.7 33.2264 111.818 33.2264C111.941 33.2264 112.049 33.272 112.073 33.3339C112.101 33.4071 112.216 33.4419 112.431 33.4419C112.604 33.4419 112.746 33.4741 112.746 33.5134C112.746 33.5528 112.86 33.585 112.998 33.585C113.137 33.585 113.25 33.6176 113.25 33.6569C113.25 33.6963 113.396 33.7285 113.574 33.7285C113.813 33.7285 113.897 33.7565 113.897 33.8364C113.897 33.9113 113.973 33.944 114.149 33.944C114.288 33.944 114.401 33.9762 114.401 34.0155C114.401 34.0553 114.514 34.0875 114.653 34.0875C114.791 34.0875 114.904 34.1197 114.904 34.1591C114.904 34.1984 114.969 34.231 115.048 34.231C115.128 34.231 115.192 34.2611 115.192 34.2976C115.192 34.3344 115.263 34.3871 115.349 34.4143C115.435 34.4415 115.57 34.5243 115.65 34.5984C115.73 34.6725 115.853 34.7331 115.925 34.7331C116.009 34.7331 116.056 34.7859 116.056 34.8817C116.056 35.0403 116.211 35.2353 116.338 35.2353C116.38 35.2353 116.415 35.316 116.415 35.4148C116.415 35.5131 116.447 35.5938 116.487 35.5938C116.527 35.5938 116.559 35.7068 116.559 35.8449C116.559 35.983 116.591 36.096 116.631 36.096C116.671 36.096 116.703 36.2416 116.703 36.419C116.703 36.5964 116.671 36.7416 116.631 36.7416C116.591 36.7416 116.559 36.8546 116.559 36.9931C116.559 37.1312 116.527 37.2441 116.487 37.2441C116.447 37.2441 116.415 37.3245 116.415 37.4232C116.415 37.522 116.381 37.6027 116.34 37.6027C116.242 37.6027 115.912 37.9325 115.912 38.0299C115.912 38.071 115.863 38.1048 115.804 38.1048C115.744 38.1048 115.696 38.1371 115.696 38.1764C115.696 38.2161 115.601 38.2484 115.484 38.2484C115.368 38.2484 115.253 38.2806 115.228 38.3199C115.204 38.3597 115.04 38.3919 114.864 38.3919C114.689 38.3919 114.545 38.4241 114.545 38.4634C114.545 38.5074 114.221 38.5354 113.718 38.5354C113.214 38.5354 112.89 38.5074 112.89 38.4634C112.89 38.4241 112.745 38.3919 112.567 38.3919C112.389 38.3919 112.243 38.3597 112.243 38.3199C112.243 38.2806 112.162 38.2484 112.063 38.2484C111.964 38.2484 111.883 38.2161 111.883 38.1764C111.883 38.1371 111.831 38.1048 111.768 38.1048C111.626 38.1048 110.876 37.3462 110.876 37.2031C110.876 37.1466 110.844 37.1006 110.804 37.1006C110.765 37.1006 110.732 36.9876 110.732 36.8496C110.732 36.7115 110.7 36.5985 110.66 36.5985C110.621 36.5985 110.588 36.46 110.588 36.2914C110.588 35.7537 110.535 35.7374 108.779 35.7374C107.416 35.7374 107.249 35.7503 107.164 35.8629C107.048 36.0156 107.022 37.5308 107.136 37.5308C107.175 37.5308 107.207 37.6772 107.207 37.8559C107.207 38.0789 107.241 38.194 107.315 38.2224C107.375 38.245 107.423 38.3249 107.423 38.3994C107.423 38.4743 107.456 38.5354 107.495 38.5354C107.535 38.5354 107.567 38.6162 107.567 38.7145C107.567 38.8132 107.599 38.894 107.639 38.894C107.679 38.894 107.711 38.9509 107.711 39.0204C107.711 39.0898 107.824 39.243 107.961 39.361C108.099 39.479 108.212 39.6158 108.213 39.6652C108.214 39.7145 108.255 39.7555 108.305 39.7564C108.354 39.7572 108.491 39.8702 108.61 40.0074C108.728 40.1447 108.874 40.2572 108.935 40.2572C108.996 40.2572 109.093 40.3217 109.15 40.4008C109.207 40.4794 109.327 40.5439 109.417 40.5439C109.508 40.5439 109.581 40.574 109.581 40.6104C109.581 40.705 110.003 40.9029 110.204 40.9029C110.297 40.9029 110.373 40.9351 110.373 40.9744C110.373 41.0138 110.486 41.0464 110.624 41.0464C110.763 41.0464 110.876 41.0786 110.876 41.118C110.876 41.1577 111.068 41.1899 111.308 41.1899C111.643 41.1899 111.74 41.2138 111.74 41.2975C111.74 41.3904 112.015 41.405 113.792 41.405C115.55 41.405 115.85 41.3895 115.886 41.2975C115.915 41.2201 116.036 41.1899 116.315 41.1899C116.528 41.1899 116.703 41.1573 116.703 41.118C116.703 41.0786 116.816 41.0464 116.955 41.0464C117.093 41.0464 117.206 41.0138 117.206 40.9744C117.206 40.9351 117.287 40.9029 117.386 40.9029C117.485 40.9029 117.566 40.8707 117.566 40.8309C117.566 40.7916 117.615 40.7594 117.676 40.7594C117.737 40.7594 117.805 40.7108 117.828 40.6518C117.85 40.5924 117.947 40.5439 118.041 40.5439C118.136 40.5439 118.213 40.5116 118.213 40.4723C118.213 40.433 118.27 40.3995 118.339 40.3983C118.474 40.3957 118.717 40.2388 118.717 40.1543C118.717 40.0907 118.906 39.8982 118.969 39.8982C119.032 39.8982 119.221 39.7062 119.221 39.6426C119.221 39.6145 119.334 39.4953 119.472 39.3773C119.611 39.2593 119.724 39.1024 119.724 39.0283C119.724 38.9547 119.757 38.894 119.796 38.894C119.836 38.894 119.868 38.8132 119.868 38.7145C119.868 38.6162 119.9 38.5354 119.94 38.5354C119.98 38.5354 120.012 38.4743 120.012 38.3994C120.012 38.3249 120.06 38.245 120.12 38.2224C120.194 38.194 120.228 38.0789 120.228 37.8559C120.228 37.6772 120.26 37.5308 120.299 37.5308C120.345 37.5308 120.372 37.0169 120.372 36.1319C120.372 35.247 120.345 34.7331 120.299 34.7331C120.26 34.7331 120.228 34.603 120.228 34.444C120.228 34.2528 120.191 34.1406 120.12 34.1134C120.06 34.0904 120.012 33.9946 120.012 33.9005C120.012 33.8059 119.98 33.7285 119.94 33.7285C119.9 33.7285 119.868 33.6641 119.868 33.585C119.868 33.5063 119.836 33.4419 119.796 33.4419C119.757 33.4419 119.724 33.3795 119.724 33.3034C119.724 33.2272 119.643 33.1017 119.544 33.0243C119.445 32.9464 119.365 32.8619 119.365 32.8364C119.365 32.777 119.026 32.4372 118.967 32.4372C118.943 32.4372 118.878 32.397 118.822 32.3477C118.584 32.1347 118.503 32.0786 118.432 32.0786C118.391 32.0786 118.357 32.0464 118.357 32.0071C118.357 31.9673 118.293 31.9351 118.213 31.9351C118.134 31.9351 118.069 31.9029 118.069 31.8636C118.069 31.8238 117.989 31.7916 117.89 31.7916C117.778 31.7916 117.71 31.751 117.71 31.684C117.71 31.6171 117.642 31.5765 117.53 31.5765C117.431 31.5765 117.35 31.5443 117.35 31.5045C117.35 31.4652 117.286 31.433 117.206 31.433C117.127 31.433 117.063 31.4008 117.063 31.361C117.063 31.3217 116.949 31.2895 116.811 31.2895C116.635 31.2895 116.559 31.2568 116.559 31.1819C116.559 31.1066 116.483 31.0744 116.307 31.0744C116.169 31.0744 116.056 31.0418 116.056 31.0024C116.056 30.9631 115.91 30.9309 115.732 30.9309C115.554 30.9309 115.408 30.8987 115.408 30.8589C115.408 30.8196 115.298 30.7873 115.164 30.7873C115.013 30.7873 114.904 30.7459 114.878 30.6798C114.85 30.6058 114.734 30.5719 114.511 30.5719C114.332 30.5719 114.185 30.5396 114.185 30.5003C114.185 30.461 114.072 30.4288 113.933 30.4288C113.795 30.4288 113.682 30.3961 113.682 30.3568C113.682 30.3175 113.536 30.2852 113.358 30.2852C113.118 30.2852 113.034 30.2572 113.034 30.1773C113.034 30.1183 112.971 30.0697 112.895 30.0697C112.818 30.0697 112.735 30.0375 112.71 29.9982C112.686 29.9589 112.571 29.9262 112.454 29.9262C112.338 29.9262 112.243 29.894 112.243 29.8547C112.243 29.8153 112.162 29.7827 112.063 29.7827C111.964 29.7827 111.883 29.7484 111.883 29.7061C111.883 29.6233 111.706 29.4241 111.633 29.4241C111.576 29.4241 111.236 29.0852 111.236 29.0279C111.236 29.0036 111.195 28.9383 111.146 28.8835C111.096 28.8287 111.015 28.7354 110.966 28.6764C110.862 28.5525 110.838 27.2721 110.94 27.2721C110.976 27.2721 111.025 27.1914 111.049 27.0926C111.075 26.9939 111.127 26.9131 111.165 26.9131C111.204 26.9131 111.236 26.8487 111.236 26.7696C111.236 26.6909 111.268 26.6265 111.308 26.6265C111.347 26.6265 111.38 26.5918 111.38 26.5495C111.38 26.4499 111.563 26.2675 111.662 26.2675C111.705 26.2675 111.74 26.2353 111.74 26.1959C111.74 26.1566 111.801 26.124 111.875 26.124C111.951 26.124 112.03 26.0758 112.053 26.0164C112.076 25.9574 112.16 25.9089 112.241 25.9089C112.321 25.9089 112.387 25.8767 112.387 25.8373C112.387 25.7921 112.854 25.7654 113.646 25.7654C114.338 25.7654 114.904 25.7942 114.904 25.829C114.904 25.8641 115.018 25.9143 115.156 25.9398C115.295 25.9658 115.408 26.0181 115.408 26.0557C115.408 26.0934 115.473 26.124 115.552 26.124C115.631 26.124 115.696 26.1566 115.696 26.1959C115.696 26.2353 115.73 26.2675 115.773 26.2675C115.873 26.2675 116.056 26.4499 116.056 26.5495C116.056 26.5918 116.088 26.6265 116.127 26.6265C116.167 26.6265 116.199 26.6909 116.199 26.7696C116.199 26.8495 116.247 26.9131 116.307 26.9131C116.374 26.9131 116.415 26.9809 116.415 27.0926C116.415 27.1914 116.447 27.2721 116.487 27.2721C116.527 27.2721 116.559 27.4516 116.559 27.6717C116.559 28.291 116.515 28.2764 118.388 28.2764H120.012V27.3437C120.012 26.7696 119.984 26.411 119.94 26.411C119.9 26.411 119.868 26.2658 119.868 26.0884C119.868 25.9106 119.836 25.7654 119.796 25.7654C119.757 25.7654 119.724 25.7009 119.724 25.6218C119.724 25.5432 119.692 25.4783 119.652 25.4783C119.613 25.4783 119.58 25.4315 119.58 25.3741C119.58 25.3168 119.499 25.1892 119.4 25.0904C119.302 24.9917 119.221 24.8503 119.221 24.7766C119.221 24.7025 119.143 24.6005 119.049 24.5502C118.954 24.4996 118.835 24.3812 118.785 24.2866C118.733 24.19 118.627 24.1155 118.542 24.1155C118.459 24.1155 118.331 24.0347 118.257 23.936C118.182 23.8372 118.061 23.7565 117.988 23.7565C117.914 23.7565 117.854 23.7243 117.854 23.6849C117.854 23.6456 117.789 23.6134 117.71 23.6134C117.631 23.6134 117.566 23.5807 117.566 23.5414C117.566 23.5021 117.499 23.4699 117.417 23.4699C117.335 23.4699 117.219 23.4213 117.16 23.3619C117.101 23.3029 116.974 23.2544 116.877 23.2544C116.781 23.2544 116.703 23.2221 116.703 23.1828C116.703 23.1435 116.557 23.1108 116.379 23.1108C116.201 23.1108 116.056 23.0786 116.056 23.0393C116.056 22.9974 115.816 22.9673 115.48 22.9673C115.144 22.9673 114.904 22.9376 114.904 22.8958C114.904 22.851 114.497 22.8242 113.826 22.8242C113.154 22.8242 112.746 22.851 112.746 22.8958ZM144.038 22.8958C144.038 22.9376 143.798 22.9673 143.462 22.9673C143.127 22.9673 142.887 22.9974 142.887 23.0393C142.887 23.0786 142.743 23.1108 142.568 23.1108C142.392 23.1108 142.231 23.1397 142.209 23.1744C142.187 23.2096 142.056 23.2594 141.917 23.2853C141.778 23.3113 141.664 23.3636 141.664 23.4012C141.664 23.4389 141.6 23.4699 141.52 23.4699C141.441 23.4699 141.376 23.5021 141.376 23.5414C141.376 23.5807 141.295 23.6134 141.197 23.6134C141.098 23.6134 141.017 23.6456 141.017 23.6849C141.017 23.7243 140.967 23.7565 140.907 23.7565C140.846 23.7565 140.778 23.805 140.755 23.8644C140.732 23.9234 140.669 23.972 140.614 23.972C140.558 23.972 140.513 24.0042 140.513 24.0435C140.513 24.0833 140.463 24.1155 140.401 24.1155C140.234 24.1155 139.219 25.1599 139.219 25.3323C139.219 25.4126 139.184 25.4783 139.141 25.4783C139.014 25.4783 138.859 25.6733 138.859 25.8319C138.859 25.9139 138.826 25.9804 138.787 25.9804C138.747 25.9804 138.715 26.0315 138.715 26.0934C138.715 26.1553 138.666 26.2545 138.607 26.3139C138.548 26.3729 138.499 26.4997 138.499 26.5955C138.499 26.6913 138.467 26.7696 138.427 26.7696C138.387 26.7696 138.355 26.8826 138.355 27.0211C138.355 27.1591 138.323 27.2721 138.283 27.2721C138.244 27.2721 138.211 27.4516 138.211 27.6717C138.211 27.9311 138.174 28.109 138.103 28.1789C138.01 28.2718 137.996 28.8002 137.996 32.0502C137.996 35.3294 138.009 35.819 138.103 35.8549C138.182 35.8851 138.211 36.0093 138.211 36.319C138.211 36.5529 138.244 36.7416 138.283 36.7416C138.323 36.7416 138.355 36.8546 138.355 36.9931C138.355 37.1312 138.387 37.2441 138.427 37.2441C138.467 37.2441 138.499 37.3224 138.499 37.4182C138.499 37.514 138.548 37.6408 138.607 37.7002C138.666 37.7592 138.715 37.8584 138.715 37.9203C138.715 37.9822 138.747 38.0333 138.787 38.0333C138.826 38.0333 138.859 38.0998 138.859 38.1818C138.859 38.3404 139.014 38.5354 139.141 38.5354C139.184 38.5354 139.219 38.6024 139.219 38.6848C139.219 38.8446 140.095 39.7547 140.249 39.7547C140.298 39.7547 140.384 39.8196 140.441 39.8982C140.498 39.9773 140.619 40.0418 140.709 40.0418C140.807 40.0418 140.873 40.0853 140.873 40.1493C140.873 40.2087 140.936 40.2572 141.013 40.2572C141.089 40.2572 141.172 40.2895 141.197 40.3288C141.221 40.3681 141.304 40.4008 141.381 40.4008C141.457 40.4008 141.52 40.433 141.52 40.4723C141.52 40.5116 141.63 40.5439 141.765 40.5439C141.915 40.5439 142.024 40.5853 142.05 40.6518C142.074 40.7146 142.182 40.7594 142.31 40.7594C142.43 40.7594 142.527 40.7916 142.527 40.8309C142.527 40.8719 142.743 40.9029 143.031 40.9029C143.319 40.9029 143.535 40.9334 143.535 40.9744C143.535 41.1004 151.937 41.0703 152.064 40.9439C152.145 40.8623 152.167 40.5727 152.167 39.5447V38.2484H151.339C150.652 38.2484 150.512 38.23 150.512 38.1408C150.512 38.0802 150.577 38.0333 150.659 38.0333C150.849 38.0333 151.16 37.7237 151.16 37.5341C151.16 37.4533 151.195 37.3877 151.237 37.3877C151.364 37.3877 151.519 37.1927 151.519 37.0337C151.519 36.9521 151.552 36.8851 151.591 36.8851C151.631 36.8851 151.663 36.824 151.663 36.7495C151.663 36.6747 151.712 36.5951 151.771 36.5726C151.834 36.5483 151.879 36.4407 151.879 36.3135C151.879 36.1939 151.912 36.096 151.951 36.096C151.991 36.096 152.023 35.9047 152.023 35.6658C152.023 35.4265 152.055 35.2353 152.095 35.2353C152.142 35.2353 152.167 34.0277 152.167 31.7556C152.167 29.4839 152.142 28.2764 152.095 28.2764C152.054 28.2764 152.023 28.0613 152.023 27.7742C152.023 27.4872 151.992 27.2721 151.951 27.2721C151.912 27.2721 151.879 27.1612 151.879 27.0261C151.879 26.8905 151.831 26.7315 151.771 26.6725C151.712 26.6131 151.663 26.498 151.663 26.416C151.663 26.3344 151.631 26.2675 151.591 26.2675C151.552 26.2675 151.519 26.203 151.519 26.124C151.519 26.0453 151.487 25.9804 151.448 25.9804C151.408 25.9804 151.375 25.9001 151.375 25.8013C151.375 25.7026 151.341 25.6218 151.299 25.6218C151.182 25.6218 151.016 25.4323 151.016 25.2992C151.016 25.1662 150.85 24.9762 150.733 24.9762C150.691 24.9762 150.656 24.9423 150.656 24.9013C150.656 24.8038 150.325 24.4741 150.228 24.4741C150.186 24.4741 150.153 24.4394 150.153 24.3971C150.153 24.2758 149.96 24.1155 149.814 24.1155C149.741 24.1155 149.633 24.0494 149.575 23.9686C149.462 23.8121 149.115 23.6134 148.955 23.6134C148.901 23.6134 148.858 23.5807 148.858 23.5414C148.858 23.5021 148.777 23.4699 148.678 23.4699C148.579 23.4699 148.498 23.4389 148.498 23.4012C148.498 23.3636 148.385 23.3117 148.246 23.2857C148.108 23.2598 147.995 23.21 147.995 23.1749C147.995 23.1397 147.849 23.1108 147.671 23.1108C147.493 23.1108 147.347 23.0786 147.347 23.0393C147.347 22.9974 147.107 22.9673 146.772 22.9673C146.436 22.9673 146.196 22.9376 146.196 22.8958C146.196 22.851 145.789 22.8242 145.117 22.8242C144.446 22.8242 144.038 22.851 144.038 22.8958ZM38.2386 23.1108C38.1895 23.1899 38.1006 23.2544 38.0414 23.2544C37.9478 23.2544 37.9344 23.7954 37.9344 27.5947V31.9351H33.6226C30.8254 31.9351 29.2948 31.9602 29.2663 32.0071C29.2416 32.0464 29.1589 32.0786 29.0817 32.0786C28.9437 32.0786 28.942 32.2046 28.96 41.0284L28.9785 49.9782L34.7151 49.9962C38.5268 50.0087 40.4522 49.9903 40.4522 49.9426C40.4522 49.902 40.6423 49.8702 40.8835 49.8702C41.1235 49.8702 41.3152 49.8384 41.3152 49.7987C41.3152 49.7594 41.4264 49.7267 41.5619 49.7267C41.6974 49.7267 41.8569 49.6786 41.9165 49.6192C41.9756 49.5602 42.1237 49.5116 42.2454 49.5116C42.3666 49.5116 42.4661 49.4794 42.4661 49.4401C42.4661 49.4003 42.5794 49.3681 42.7178 49.3681C42.8563 49.3681 42.9695 49.3359 42.9695 49.2966C42.9695 49.2568 43.0677 49.2246 43.1877 49.2246C43.3153 49.2246 43.4231 49.1798 43.4474 49.1171C43.4701 49.0581 43.5498 49.0095 43.6249 49.0095C43.6996 49.0095 43.7608 48.9773 43.7608 48.9376C43.7608 48.8982 43.8418 48.866 43.9408 48.866C44.0398 48.866 44.1208 48.8338 44.1208 48.7945C44.1208 48.7547 44.2018 48.7225 44.3004 48.7225C44.4124 48.7225 44.4804 48.6819 44.4804 48.615C44.4804 48.5551 44.5442 48.5074 44.6243 48.5074C44.7032 48.5074 44.7682 48.4752 44.7682 48.4354C44.7682 48.3961 44.8492 48.3639 44.9478 48.3639C45.0468 48.3639 45.1278 48.3317 45.1278 48.2919C45.1278 48.2526 45.1777 48.2204 45.2389 48.2204C45.3002 48.2204 45.4256 48.1396 45.5171 48.0409C45.6086 47.9425 45.7365 47.8618 45.8016 47.8618C45.8662 47.8618 45.9191 47.8296 45.9191 47.7898C45.9191 47.7505 45.9677 47.7183 46.0269 47.7183C46.0865 47.7183 46.1347 47.6697 46.1347 47.6107C46.1347 47.5509 46.1989 47.5028 46.2786 47.5028C46.3579 47.5028 46.4225 47.4705 46.4225 47.4312C46.4225 47.3919 46.4573 47.3592 46.4997 47.3592C46.5836 47.3592 46.7821 47.1827 46.7821 47.1082C46.7821 47.0337 46.981 46.8571 47.0649 46.8571C47.1072 46.8571 47.1421 46.8249 47.1421 46.7856C47.1421 46.7462 47.2067 46.7136 47.286 46.7136C47.3657 46.7136 47.4299 46.6659 47.4299 46.6061C47.4299 46.5471 47.4618 46.4985 47.5008 46.4985C47.6313 46.4985 48.4368 45.6299 48.4368 45.4893C48.4368 45.4131 48.4708 45.3508 48.5119 45.3508C48.5921 45.3508 48.9403 45.0286 48.9403 44.9541C48.9403 44.9298 48.9806 44.865 49.0301 44.8102C49.2361 44.5809 49.2999 44.4926 49.2999 44.4369C49.2999 44.4047 49.3649 44.3315 49.4438 44.2746C49.5231 44.2177 49.5877 44.0976 49.5877 44.0076C49.5877 43.9101 49.6313 43.844 49.6955 43.844C49.7555 43.844 49.8033 43.7804 49.8033 43.7005C49.8033 43.6218 49.8361 43.557 49.8755 43.557C49.9149 43.557 49.9472 43.5089 49.9472 43.4494C49.9472 43.3904 49.98 43.3419 50.0194 43.3419C50.0588 43.3419 50.0912 43.2775 50.0912 43.1984C50.0912 43.1189 50.1394 43.0549 50.199 43.0549C50.2661 43.0549 50.3072 42.9871 50.3072 42.8758C50.3072 42.777 50.3395 42.6963 50.379 42.6963C50.4184 42.6963 50.4511 42.6318 50.4511 42.5527C50.4511 42.4741 50.4834 42.4092 50.5229 42.4092C50.5623 42.4092 50.5946 42.3322 50.5946 42.2377C50.5946 42.1431 50.6433 42.0473 50.7029 42.0247C50.7658 42.0004 50.8107 41.8929 50.8107 41.7661C50.8107 41.6464 50.843 41.5485 50.8824 41.5485C50.9223 41.5485 50.9546 41.4678 50.9546 41.369C50.9546 41.2703 50.9869 41.1899 51.0264 41.1899C51.0658 41.1899 51.0985 41.0803 51.0985 40.9464C51.0985 40.7962 51.1396 40.687 51.2063 40.6614C51.2777 40.6343 51.3142 40.5221 51.3142 40.3309C51.3142 40.1719 51.3465 40.0418 51.3859 40.0418C51.4258 40.0418 51.4581 39.8966 51.4581 39.7191C51.4581 39.5413 51.4904 39.3961 51.5298 39.3961C51.5705 39.3961 51.602 39.1911 51.602 38.925C51.602 38.6015 51.636 38.4195 51.7098 38.3459C51.7996 38.2559 51.8176 37.9513 51.8176 36.519C51.8176 35.0574 51.8017 34.7942 51.7098 34.7591C51.6284 34.7277 51.602 34.5967 51.602 34.2231C51.602 33.9415 51.5709 33.7285 51.5298 33.7285C51.4904 33.7285 51.4581 33.5511 51.4581 33.3339C51.4581 33.1172 51.4258 32.9393 51.3859 32.9393C51.3465 32.9393 51.3142 32.8264 51.3142 32.6883C51.3142 32.513 51.2814 32.4372 51.2063 32.4372C51.1308 32.4372 51.0985 32.3615 51.0985 32.1862C51.0985 32.0481 51.0658 31.9351 51.0264 31.9351C50.9869 31.9351 50.9546 31.8221 50.9546 31.684C50.9546 31.546 50.9223 31.433 50.8824 31.433C50.843 31.433 50.8107 31.3522 50.8107 31.2535C50.8107 31.1422 50.77 31.0744 50.7029 31.0744C50.6311 31.0744 50.5946 31.0028 50.5946 30.8631C50.5946 30.7472 50.5623 30.6321 50.5229 30.6078C50.4834 30.5836 50.4511 30.5007 50.4511 30.4242C50.4511 30.3476 50.4184 30.2852 50.379 30.2852C50.3395 30.2852 50.3072 30.225 50.3072 30.1518C50.3072 30.0781 50.2262 29.9576 50.1272 29.8835C50.0282 29.8095 49.9472 29.676 49.9472 29.5865C49.9472 29.4973 49.9149 29.4241 49.8755 29.4241C49.8361 29.4241 49.8033 29.3597 49.8033 29.2806C49.8033 29.2011 49.7555 29.1371 49.6955 29.1371C49.6364 29.1371 49.5877 29.0889 49.5877 29.0295C49.5877 28.9705 49.5554 28.922 49.5159 28.922C49.4761 28.922 49.4438 28.8576 49.4438 28.7785C49.4438 28.6998 49.4115 28.6349 49.372 28.6349C49.3322 28.6349 49.2999 28.5923 49.2999 28.5395C49.2999 28.4872 49.2189 28.401 49.1203 28.3479C49.0213 28.2952 48.9403 28.201 48.9403 28.1387C48.9403 28.0014 48.6323 27.6307 48.5182 27.6307C48.4733 27.6307 48.4368 27.5968 48.4368 27.5558C48.4368 27.4583 48.1062 27.1286 48.0085 27.1286C47.9669 27.1286 47.9334 27.0947 47.9334 27.0533C47.9334 26.9562 47.6027 26.6265 47.505 26.6265C47.4634 26.6265 47.4299 26.5926 47.4299 26.5512C47.4299 26.4713 47.1064 26.124 47.0321 26.124C46.9591 26.124 46.7821 25.9248 46.7821 25.8424C46.7821 25.8001 46.7095 25.7645 46.6206 25.7637C46.5262 25.7628 46.3688 25.6582 46.2434 25.5126C46.1251 25.3754 45.9786 25.2632 45.9178 25.2632C45.857 25.2632 45.7605 25.1988 45.7034 25.1197C45.6463 25.0406 45.5259 24.9762 45.4357 24.9762C45.338 24.9762 45.2717 24.9327 45.2717 24.8687C45.2717 24.8088 45.2079 24.7611 45.1278 24.7611C45.0485 24.7611 44.9839 24.7289 44.9839 24.6892C44.9839 24.6498 44.9352 24.6176 44.876 24.6176C44.8164 24.6176 44.7682 24.5854 44.7682 24.5456C44.7682 24.5063 44.7032 24.4741 44.6243 24.4741C44.545 24.4741 44.4804 24.4423 44.4804 24.4038C44.4804 24.3649 44.3994 24.313 44.3004 24.2883C44.2018 24.2636 44.1208 24.2147 44.1208 24.1795C44.1208 24.1439 44.0075 24.1155 43.8691 24.1155C43.7306 24.1155 43.6173 24.0833 43.6173 24.0435C43.6173 24.0042 43.5397 23.972 43.4449 23.972C43.3505 23.972 43.2544 23.9234 43.2314 23.8644C43.2087 23.805 43.1101 23.7565 43.0123 23.7565C42.9146 23.7565 42.8143 23.7243 42.79 23.6849C42.7656 23.6456 42.6503 23.6134 42.534 23.6134C42.4174 23.6134 42.3222 23.5807 42.3222 23.5414C42.3222 23.5021 42.2118 23.4699 42.0767 23.4699C41.9412 23.4699 41.8195 23.436 41.8057 23.3945C41.7918 23.3531 41.5951 23.3004 41.3681 23.277C41.1411 23.2535 40.9557 23.2067 40.9557 23.1728C40.9557 23.1389 40.7291 23.1108 40.4522 23.1108C40.1644 23.1108 39.9483 23.0803 39.9483 23.0393C39.9483 22.8836 38.3389 22.9514 38.2386 23.1108ZM60.0901 32.0071V41.0464H64.4019C67.1991 41.0464 68.7297 41.0209 68.7582 40.9744C68.7829 40.9351 68.9466 40.9029 69.1224 40.9029C69.2982 40.9029 69.4417 40.8707 69.4417 40.8309C69.4417 40.7916 69.5398 40.7594 69.6598 40.7594C69.7874 40.7594 69.8952 40.7146 69.9191 40.6518C69.9447 40.5853 70.0542 40.5439 70.2048 40.5439C70.3391 40.5439 70.449 40.5116 70.449 40.4723C70.449 40.433 70.5019 40.4008 70.5665 40.4008C70.6311 40.4008 70.7591 40.32 70.851 40.2213C70.9424 40.1225 71.0675 40.0418 71.1287 40.0418C71.19 40.0418 71.2399 40.0095 71.2399 39.9702C71.2399 39.9309 71.2886 39.8982 71.3481 39.8982C71.4073 39.8982 71.456 39.866 71.456 39.8267C71.456 39.7873 71.4971 39.7547 71.5478 39.7547C71.5982 39.7547 71.6922 39.6982 71.7564 39.6292C71.821 39.5601 71.9573 39.4279 72.0601 39.335C72.1629 39.2421 72.2473 39.1049 72.2473 39.03C72.2473 38.9551 72.2817 38.894 72.3245 38.894C72.4239 38.894 72.6068 38.7116 72.6068 38.612C72.6068 38.5697 72.6391 38.5354 72.679 38.5354C72.7184 38.5354 72.7507 38.4706 72.7507 38.3919C72.7507 38.3128 72.783 38.2484 72.8225 38.2484C72.8623 38.2484 72.8946 38.1676 72.8946 38.0689C72.8946 37.9576 72.9353 37.8898 73.0025 37.8898C73.0696 37.8898 73.1103 37.822 73.1103 37.7103C73.1103 37.6115 73.1426 37.5308 73.1824 37.5308C73.2219 37.5308 73.2542 37.4341 73.2542 37.3157C73.2542 37.1973 73.2865 37.1006 73.3264 37.1006C73.3658 37.1006 73.3981 36.9391 73.3981 36.7416C73.3981 36.4709 73.4245 36.383 73.5059 36.383C73.5928 36.383 73.6138 36.2713 73.6138 35.8093C73.6138 35.4742 73.644 35.2353 73.6859 35.2353C73.7329 35.2353 73.7577 34.1712 73.7577 32.1862C73.7577 30.2015 73.7329 29.1371 73.6859 29.1371C73.6423 29.1371 73.6138 28.8383 73.6138 28.3839C73.6138 27.7621 73.5953 27.6307 73.5059 27.6307C73.4245 27.6307 73.3981 27.5428 73.3981 27.2721C73.3981 27.0746 73.3658 26.9131 73.3264 26.9131C73.2865 26.9131 73.2542 26.8165 73.2542 26.698C73.2542 26.5796 73.2219 26.483 73.1824 26.483C73.1426 26.483 73.1103 26.4022 73.1103 26.3035C73.1103 26.1917 73.0696 26.124 73.0025 26.124C72.9383 26.124 72.8946 26.0583 72.8946 25.9608C72.8946 25.8708 72.83 25.7507 72.7507 25.6938C72.6714 25.6369 72.6068 25.5369 72.6068 25.4716C72.6068 25.4063 72.4935 25.2565 72.3551 25.1386C72.2166 25.021 72.1033 24.9013 72.1033 24.8733C72.1033 24.803 71.9108 24.6176 71.8378 24.6176C71.8046 24.6176 71.7169 24.5369 71.6427 24.4381C71.5684 24.3394 71.4547 24.259 71.3897 24.259C71.3251 24.259 71.2252 24.1942 71.1681 24.1155C71.1111 24.0364 70.9907 23.972 70.9005 23.972C70.8027 23.972 70.7364 23.9285 70.7364 23.8644C70.7364 23.8046 70.6726 23.7565 70.5925 23.7565C70.5136 23.7565 70.449 23.7243 70.449 23.6849C70.449 23.6456 70.368 23.6134 70.269 23.6134C70.17 23.6134 70.089 23.5807 70.089 23.5414C70.089 23.5021 69.9791 23.4699 69.8449 23.4699C69.6947 23.4699 69.5851 23.4284 69.5596 23.3619C69.5352 23.2991 69.4274 23.2544 69.3003 23.2544C69.1803 23.2544 69.0821 23.2221 69.0821 23.1828C69.0821 23.1435 68.9042 23.1108 68.6865 23.1108C68.4687 23.1108 68.2908 23.0786 68.2908 23.0393C68.2908 22.9924 66.8761 22.9673 64.1905 22.9673H60.0901V32.0071ZM77.0844 31.9891L77.1028 41.0104L78.8473 41.0297L80.5915 41.0489V32.0083V22.9673H78.8289H77.0663L77.0844 31.9891ZM88.9361 23.0393C88.9361 23.079 88.7443 23.1108 88.5044 23.1108C88.2648 23.1108 88.073 23.1431 88.073 23.1828C88.073 23.2221 87.9942 23.2544 87.8981 23.2544C87.802 23.2544 87.6749 23.3029 87.6157 23.3619C87.5561 23.4213 87.408 23.4699 87.2868 23.4699C87.1651 23.4699 87.0657 23.5021 87.0657 23.5414C87.0657 23.5807 87.0011 23.6134 86.9218 23.6134C86.8429 23.6134 86.7779 23.6456 86.7779 23.6849C86.7779 23.7243 86.7124 23.7565 86.6319 23.7565C86.5517 23.7565 86.467 23.805 86.4443 23.8644C86.4217 23.9234 86.3478 23.972 86.2803 23.972C86.2127 23.972 86.0881 24.0364 86.0034 24.1155C85.9182 24.1942 85.8208 24.259 85.786 24.259C85.6702 24.259 84.764 25.1821 84.764 25.3001C84.764 25.4323 84.5974 25.6218 84.4812 25.6218C84.4388 25.6218 84.404 25.7026 84.404 25.8013C84.404 25.9001 84.3717 25.9804 84.3323 25.9804C84.2928 25.9804 84.2601 26.0453 84.2601 26.124C84.2601 26.203 84.2278 26.2675 84.1883 26.2675C84.1489 26.2675 84.1166 26.3482 84.1166 26.447C84.1166 26.5587 84.0755 26.6265 84.0084 26.6265C83.9333 26.6265 83.9005 26.7022 83.9005 26.8775C83.9005 27.0156 83.8682 27.1286 83.8288 27.1286C83.7889 27.1286 83.7566 27.2738 83.7566 27.4512C83.7566 27.629 83.7243 27.7742 83.6849 27.7742C83.6412 27.7742 83.6127 28.073 83.6127 28.5274C83.6127 29.1492 83.5942 29.2806 83.5049 29.2806C83.4105 29.2806 83.3971 29.6835 83.3971 32.4753C83.3971 35.2491 83.4113 35.6754 83.5049 35.7114C83.5884 35.7432 83.6127 35.8817 83.6127 36.319C83.6127 36.6487 83.6429 36.8851 83.6849 36.8851C83.7243 36.8851 83.7566 37.0286 83.7566 37.204C83.7566 37.3793 83.7889 37.5425 83.8288 37.5667C83.8682 37.591 83.9005 37.7061 83.9005 37.822C83.9005 37.9617 83.937 38.0333 84.0084 38.0333C84.0755 38.0333 84.1166 38.1011 84.1166 38.2124C84.1166 38.3111 84.1489 38.3919 84.1883 38.3919C84.2278 38.3919 84.2613 38.4484 84.2626 38.5174C84.2655 38.6722 84.4275 38.894 84.5378 38.894C84.5831 38.894 84.6201 38.9593 84.6201 39.0392C84.6201 39.2112 85.7789 40.4008 85.9463 40.4008C86.008 40.4008 86.0587 40.433 86.0587 40.4723C86.0587 40.5116 86.1074 40.5439 86.1666 40.5439C86.2257 40.5439 86.2744 40.5765 86.2744 40.6158C86.2744 40.6552 86.3189 40.6874 86.3734 40.6874C86.4279 40.6874 86.5131 40.7359 86.5622 40.7953C86.6113 40.8543 86.7447 40.9029 86.8588 40.9029C86.9725 40.9029 87.0657 40.9351 87.0657 40.9744C87.0657 41.0138 87.179 41.0464 87.3174 41.0464C87.4559 41.0464 87.5692 41.0786 87.5692 41.118C87.5692 41.1573 87.7114 41.1899 87.8855 41.1899C88.0999 41.1899 88.2144 41.2242 88.2425 41.2975C88.2748 41.3807 88.4146 41.405 88.8618 41.405C89.1991 41.405 89.4395 41.4347 89.4395 41.4765C89.4395 41.5213 89.8474 41.5485 90.5187 41.5485C91.19 41.5485 91.5978 41.5213 91.5978 41.4765C91.5978 41.4347 91.8373 41.405 92.173 41.405C92.6366 41.405 92.7486 41.3841 92.7486 41.2975C92.7486 41.2175 92.8325 41.1899 93.0721 41.1899C93.2504 41.1899 93.396 41.1573 93.396 41.118C93.396 41.0786 93.5093 41.0464 93.6477 41.0464C93.7862 41.0464 93.8995 41.0138 93.8995 40.9744C93.8995 40.9351 94.0127 40.9029 94.1512 40.9029C94.2897 40.9029 94.4029 40.8728 94.4029 40.8359C94.4029 40.7991 94.4759 40.746 94.5649 40.7179C94.6538 40.6899 94.7793 40.6071 94.8431 40.5338C94.9072 40.4606 95.0042 40.3995 95.0591 40.3983C95.1926 40.3953 95.4103 40.225 95.4103 40.1238C95.4103 40.0786 95.4749 40.0418 95.5542 40.0418C95.6331 40.0418 95.6981 40.0095 95.6981 39.9702C95.6981 39.9309 95.7464 39.8982 95.8059 39.8982C95.8651 39.8982 95.9138 39.8694 95.9138 39.8338C95.9138 39.7982 96.0271 39.6564 96.1655 39.5183C96.304 39.3802 96.4172 39.2225 96.4172 39.1681C96.4172 39.1137 96.4819 39.0225 96.5611 38.9656C96.6404 38.9091 96.7051 38.7886 96.7051 38.699C96.7051 38.6011 96.7487 38.5354 96.8129 38.5354C96.8729 38.5354 96.9207 38.4714 96.9207 38.3919C96.9207 38.3128 96.953 38.2484 96.9929 38.2484C97.0323 38.2484 97.0646 38.1676 97.0646 38.0689C97.0646 37.9705 97.0969 37.8898 97.1368 37.8898C97.1762 37.8898 97.2085 37.7768 97.2085 37.6387C97.2085 37.463 97.2413 37.3877 97.3164 37.3877C97.3994 37.3877 97.4242 37.2956 97.4242 36.9931C97.4242 36.7759 97.4569 36.5985 97.4964 36.5985C97.6218 36.5985 97.5916 32.02 97.4653 31.8941C97.3122 31.7414 91.3502 31.7414 91.1967 31.8941C91.0788 32.0117 91.059 32.2221 91.166 32.2221C91.2113 32.2221 91.2378 32.6883 91.2378 33.4774V34.7331H92.5686H93.8995V35.4863C93.8995 35.9407 93.8709 36.2395 93.8277 36.2395C93.7879 36.2395 93.7556 36.3847 93.7556 36.5625C93.7556 36.7399 93.7233 36.8851 93.6838 36.8851C93.6444 36.8851 93.6112 36.9416 93.6104 37.0106C93.61 37.0797 93.529 37.2123 93.4308 37.3052C93.3326 37.3981 93.2521 37.5216 93.2521 37.5793C93.2521 37.7312 93.0708 37.8898 92.8976 37.8898C92.8157 37.8898 92.7486 37.9241 92.7486 37.9663C92.7486 38.0931 92.5535 38.2484 92.3941 38.2484C92.3123 38.2484 92.2451 38.2806 92.2451 38.3199C92.2451 38.3597 92.1319 38.3919 91.9934 38.3919C91.855 38.3919 91.7417 38.4241 91.7417 38.4634C91.7417 38.5082 91.3351 38.5354 90.6668 38.5354C90.0278 38.5354 89.5738 38.5061 89.5474 38.4634C89.523 38.4241 89.4077 38.3919 89.2914 38.3919C89.1752 38.3919 89.08 38.3597 89.08 38.3199C89.08 38.2806 88.9806 38.2484 88.8589 38.2484C88.6386 38.2484 88.4326 38.112 88.4326 37.9663C88.4326 37.9241 88.3986 37.8898 88.3575 37.8898C88.2597 37.8898 87.9291 37.5596 87.9291 37.4626C87.9291 37.4211 87.8805 37.3877 87.8209 37.3877C87.7613 37.3877 87.7131 37.3236 87.7131 37.2441C87.7131 37.165 87.6808 37.1006 87.6413 37.1006C87.6015 37.1006 87.5692 37.0199 87.5692 36.9211C87.5692 36.8224 87.5368 36.7416 87.4974 36.7416C87.458 36.7416 87.4252 36.6286 87.4252 36.4905C87.4252 36.3525 87.3929 36.2395 87.3535 36.2395C87.3141 36.2395 87.2818 36.0822 87.2818 35.8897C87.2818 35.6662 87.2427 35.5077 87.1735 35.4503C87.0808 35.3733 87.0657 34.9168 87.0657 32.1493C87.0657 29.3605 87.0799 28.932 87.1735 28.896C87.2515 28.8663 87.2818 28.7446 87.2818 28.458C87.2818 28.2395 87.3141 28.0613 87.3535 28.0613C87.3929 28.0613 87.4252 27.9642 87.4252 27.8458C87.4252 27.7274 87.458 27.6307 87.4974 27.6307C87.5368 27.6307 87.5692 27.55 87.5692 27.4512C87.5692 27.3529 87.6015 27.2721 87.6413 27.2721C87.6808 27.2721 87.7131 27.1914 87.7131 27.0926C87.7131 26.9939 87.747 26.9131 87.7882 26.9131C87.8859 26.9131 88.2165 26.5834 88.2165 26.4859C88.2165 26.4449 88.2652 26.411 88.3248 26.411C88.3839 26.411 88.4326 26.3788 88.4326 26.3394C88.4326 26.2997 88.4972 26.2675 88.5765 26.2675C88.6554 26.2675 88.7204 26.2353 88.7204 26.1959C88.7204 26.1566 88.8308 26.124 88.9659 26.124C89.1014 26.124 89.2252 26.0838 89.2419 26.0344C89.2642 25.9675 89.5746 25.9449 90.467 25.9449C91.3271 25.9449 91.6875 25.97 91.7522 26.0344C91.8017 26.0838 91.9653 26.124 92.1155 26.124C92.2661 26.124 92.389 26.1566 92.389 26.1959C92.389 26.2353 92.4621 26.2675 92.5518 26.2675C92.6412 26.2675 92.775 26.3482 92.8493 26.447C92.9236 26.5457 93.0448 26.6265 93.1182 26.6265C93.2043 26.6265 93.2521 26.6775 93.2521 26.7696C93.2521 26.8487 93.2844 26.9131 93.3242 26.9131C93.3637 26.9131 93.396 26.9583 93.396 27.0131C93.396 27.0683 93.4447 27.1315 93.5038 27.1545C93.5634 27.1771 93.6116 27.2453 93.6116 27.3056C93.6116 27.3659 93.6444 27.4156 93.6838 27.4156C93.7233 27.4156 93.7556 27.5587 93.7556 27.7341C93.7556 27.9094 93.7879 28.0726 93.8277 28.0968C93.8672 28.1215 93.8995 28.3031 93.8995 28.5011C93.8995 29.0739 93.8718 29.0655 95.7338 29.0655C97.0495 29.0655 97.3826 29.0458 97.4653 28.963C97.5891 28.84 97.6176 27.1286 97.4964 27.1286C97.4569 27.1286 97.4242 26.9822 97.4242 26.8035C97.4242 26.5805 97.3902 26.4654 97.3164 26.4369C97.2551 26.4135 97.2085 26.3064 97.2085 26.188C97.2085 26.0742 97.1762 25.9804 97.1368 25.9804C97.0969 25.9804 97.0646 25.9139 97.0646 25.8319C97.0646 25.6733 96.909 25.4783 96.7823 25.4783C96.7399 25.4783 96.7051 25.4047 96.7051 25.3151C96.7051 25.2252 96.6404 25.1051 96.5611 25.0482C96.4819 24.9913 96.4172 24.9034 96.4172 24.8528C96.4172 24.8021 96.3929 24.7611 96.3631 24.7611C96.2872 24.7607 95.9138 24.4331 95.9138 24.3661C95.9138 24.2829 95.6776 24.1201 95.5529 24.1176C95.4934 24.1163 95.3834 24.0347 95.3092 23.936C95.2349 23.8372 95.1141 23.7565 95.0402 23.7565C94.9668 23.7565 94.9068 23.7243 94.9068 23.6849C94.9068 23.6456 94.8259 23.6134 94.7268 23.6134C94.6278 23.6134 94.5468 23.5807 94.5468 23.5414C94.5468 23.5021 94.4474 23.4699 94.3262 23.4699C94.2045 23.4699 94.0564 23.4213 93.9972 23.3619C93.9376 23.3029 93.8105 23.2544 93.7144 23.2544C93.6184 23.2544 93.5399 23.2221 93.5399 23.1828C93.5399 23.1435 93.362 23.1108 93.1443 23.1108C92.9265 23.1108 92.7486 23.0786 92.7486 23.0393C92.7486 22.9933 92.0652 22.9673 90.8421 22.9673C89.6195 22.9673 88.9361 22.9933 88.9361 23.0393ZM100.823 23.0749C100.68 23.2368 100.693 40.8008 100.836 40.9439C100.919 41.0267 101.252 41.0464 102.568 41.0464C103.883 41.0464 104.216 41.0267 104.299 40.9439C104.387 40.856 104.402 39.5539 104.402 31.9046V22.9673L102.658 22.9703C101.243 22.9723 100.896 22.9924 100.823 23.0749ZM123.303 23.1033C123.091 23.3171 123.11 40.7418 123.322 40.9225C123.456 41.0376 123.889 41.0464 129.4 41.0464H135.334V39.5844V38.1228L135.109 38.0781C134.986 38.0534 133.076 38.0333 130.865 38.0333H126.846V35.6298V33.2264H130.694H134.543V31.7556V30.2852H130.694H126.846V28.0968V25.9089H130.987C134.481 25.9089 135.145 25.893 135.231 25.8064C135.313 25.7252 135.334 25.4394 135.334 24.4381C135.334 23.4368 135.313 23.151 135.231 23.0698C135.056 22.8949 123.477 22.9272 123.303 23.1033ZM146.322 26.0344C146.339 26.0838 146.463 26.124 146.598 26.124C146.733 26.124 146.844 26.1566 146.844 26.1959C146.844 26.2353 146.892 26.2675 146.952 26.2675C147.011 26.2675 147.059 26.2997 147.059 26.3394C147.059 26.3788 147.124 26.411 147.203 26.411C147.283 26.411 147.347 26.4457 147.347 26.488C147.347 26.5717 147.524 26.7696 147.599 26.7696C147.699 26.7696 147.851 26.9826 147.851 27.1232C147.851 27.2052 147.883 27.2721 147.922 27.2721C147.962 27.2721 147.995 27.3374 147.995 27.4177C147.995 27.4977 148.043 27.5822 148.102 27.6048C148.163 27.6278 148.21 27.7349 148.21 27.8491C148.21 27.9613 148.243 28.0726 148.282 28.0968C148.322 28.1215 148.354 28.2847 148.354 28.46C148.354 28.6354 148.386 28.7785 148.426 28.7785C148.473 28.7785 148.498 29.9024 148.498 32.0071C148.498 34.1114 148.473 35.2353 148.426 35.2353C148.386 35.2353 148.354 35.4265 148.354 35.6658C148.354 35.9047 148.322 36.096 148.282 36.096C148.243 36.096 148.21 36.1571 148.21 36.232C148.21 36.3064 148.162 36.3864 148.102 36.4089C148.043 36.4315 147.995 36.5161 147.995 36.596C147.995 36.6763 147.962 36.7416 147.922 36.7416C147.883 36.7416 147.851 36.8085 147.851 36.8906C147.851 37.0312 147.699 37.2441 147.599 37.2441C147.524 37.2441 147.347 37.4421 147.347 37.5257C147.347 37.568 147.284 37.6027 147.207 37.6027C147.131 37.6027 147.048 37.6349 147.023 37.6743C146.999 37.714 146.916 37.7462 146.84 37.7462C146.763 37.7462 146.7 37.7785 146.7 37.8178C146.7 37.8576 146.589 37.8898 146.454 37.8898C146.319 37.8898 146.195 37.9299 146.178 37.9793C146.156 38.0454 145.881 38.0689 145.133 38.0689C144.417 38.0689 144.091 38.0425 144.028 37.9793C143.978 37.9299 143.816 37.8898 143.668 37.8898C143.52 37.8898 143.379 37.8576 143.355 37.8178C143.33 37.7785 143.264 37.7462 143.207 37.7462C143.091 37.7462 142.384 37.0692 142.384 36.9579C142.384 36.9182 142.335 36.8851 142.276 36.8851C142.216 36.8851 142.168 36.8215 142.168 36.7416C142.168 36.6629 142.135 36.5985 142.096 36.5985C142.056 36.5985 142.024 36.4851 142.024 36.347C142.024 36.2089 141.991 36.096 141.952 36.096C141.913 36.096 141.88 35.9508 141.88 35.7734C141.88 35.534 141.852 35.4503 141.772 35.4503C141.678 35.4503 141.664 35.0235 141.664 32.0405C141.664 29.0756 141.678 28.6253 141.772 28.5893C141.845 28.5613 141.88 28.4467 141.88 28.2328C141.88 28.0596 141.913 27.9178 141.952 27.9178C141.991 27.9178 142.024 27.8048 142.024 27.6667C142.024 27.5286 142.056 27.4156 142.096 27.4156C142.135 27.4156 142.168 27.3508 142.168 27.2721C142.168 27.1922 142.216 27.1286 142.276 27.1286C142.335 27.1286 142.384 27.096 142.384 27.0558C142.384 26.9445 143.091 26.2675 143.207 26.2675C143.264 26.2675 143.33 26.2353 143.355 26.1959C143.379 26.1566 143.494 26.124 143.611 26.124C143.727 26.124 143.822 26.0938 143.822 26.057C143.822 25.8934 146.268 25.8712 146.322 26.0344ZM67.2839 26.0524C67.2839 26.0917 67.4295 26.124 67.6073 26.124C67.7852 26.124 67.9312 26.1566 67.9312 26.1959C67.9312 26.2353 68.0122 26.2675 68.1108 26.2675C68.2098 26.2675 68.2908 26.2997 68.2908 26.3394C68.2908 26.3788 68.3554 26.411 68.4347 26.411C68.5144 26.411 68.5786 26.4587 68.5786 26.5185C68.5786 26.578 68.6114 26.6265 68.6512 26.6265C68.7632 26.6265 69.4417 27.332 69.4417 27.4479C69.4417 27.5044 69.474 27.5705 69.5138 27.5947C69.5533 27.619 69.5856 27.7019 69.5856 27.7784C69.5856 27.855 69.6342 27.9178 69.6934 27.9178C69.7689 27.9178 69.8012 27.9935 69.8012 28.1688C69.8012 28.3069 69.8339 28.4199 69.8734 28.4199C69.9132 28.4199 69.9451 28.6111 69.9451 28.8504C69.9451 29.0894 69.9774 29.2806 70.0173 29.2806C70.0639 29.2806 70.089 30.2133 70.089 31.9351C70.089 33.6569 70.0639 34.5896 70.0173 34.5896C69.9753 34.5896 69.9451 34.8285 69.9451 35.1633C69.9451 35.4984 69.9153 35.7374 69.8734 35.7374C69.8339 35.7374 69.8012 35.8503 69.8012 35.9884C69.8012 36.1637 69.7689 36.2395 69.6934 36.2395C69.6292 36.2395 69.5856 36.3056 69.5856 36.4031C69.5856 36.4931 69.521 36.6131 69.4417 36.67C69.3628 36.727 69.2978 36.847 69.2978 36.937C69.2978 37.027 69.2642 37.1006 69.2227 37.1006C69.1249 37.1006 68.7943 37.4303 68.7943 37.5278C68.7943 37.5688 68.7133 37.6027 68.6143 37.6027C68.5157 37.6027 68.4347 37.6349 68.4347 37.6743C68.4347 37.714 68.3214 37.7462 68.183 37.7462C68.0445 37.7462 67.9312 37.7785 67.9312 37.8178C67.9312 37.8576 67.7529 37.8898 67.5356 37.8898C67.3178 37.8898 67.14 37.922 67.14 37.9613C67.14 38.0073 66.5043 38.0333 65.3774 38.0333H63.6148V32.0071V25.9804H65.4495C66.6243 25.9804 67.2839 26.0064 67.2839 26.0524Z" fill="black"/>
<path fill-rule="evenodd" clip-rule="evenodd" d="M27.6478 14.0716C27.6478 14.1113 27.4699 14.1435 27.2522 14.1435C27.0344 14.1435 26.8565 14.1757 26.8565 14.2151C26.8565 14.2544 26.7819 14.287 26.6904 14.287C26.5989 14.287 26.4613 14.3343 26.3845 14.3921C26.3078 14.4502 26.1559 14.4988 26.0472 14.5C25.9385 14.5013 25.8496 14.5343 25.8496 14.5737C25.8496 14.6134 25.7686 14.6456 25.6696 14.6456C25.5706 14.6456 25.4896 14.6779 25.4896 14.7172C25.4896 14.7569 25.4242 14.7892 25.3436 14.7892C25.263 14.7892 25.1787 14.8377 25.1561 14.8967C25.1334 14.9557 25.0533 15.0042 24.9786 15.0042C24.9035 15.0042 24.8422 15.0364 24.8422 15.0762C24.8422 15.1155 24.7613 15.1478 24.6627 15.1478C24.5636 15.1478 24.4827 15.18 24.4827 15.2197C24.4827 15.2591 24.442 15.2913 24.392 15.2913C24.3421 15.2913 24.2141 15.372 24.1076 15.4708C24.0006 15.5691 23.8634 15.6499 23.8026 15.6499C23.7413 15.6499 23.6914 15.6821 23.6914 15.7218C23.6914 15.7612 23.6427 15.7934 23.5835 15.7934C23.524 15.7934 23.4757 15.8281 23.4757 15.8704C23.4757 15.9541 23.2987 16.152 23.224 16.152C23.1648 16.152 22.9718 16.3428 22.9718 16.4014C22.9718 16.4754 22.624 16.7976 22.5439 16.7976C22.5023 16.7976 22.4684 16.8315 22.4684 16.8729C22.4684 16.9139 22.3891 17.0269 22.2917 17.124C22.1948 17.2207 22.0815 17.3002 22.04 17.3002C21.9989 17.3002 21.9649 17.3483 21.9649 17.4077C21.9649 17.4667 21.9326 17.5152 21.8931 17.5152C21.8533 17.5152 21.821 17.5721 21.821 17.6416C21.821 17.7111 21.74 17.8286 21.6414 17.9027C21.5424 17.9768 21.4614 18.0906 21.4614 18.155C21.4614 18.2199 21.3968 18.3194 21.3175 18.3759C21.2382 18.4328 21.1736 18.5496 21.1736 18.6354C21.1736 18.7211 21.1249 18.8098 21.0658 18.8324C21.0066 18.855 20.9579 18.9396 20.9579 19.0195C20.9579 19.0998 20.9256 19.1651 20.8858 19.1651C20.8463 19.1651 20.814 19.2299 20.814 19.3086C20.814 19.3877 20.7817 19.4521 20.7419 19.4521C20.7024 19.4521 20.6701 19.5513 20.6701 19.6726C20.6701 19.7936 20.6215 19.9413 20.5623 20.0007C20.5027 20.0597 20.4545 20.1865 20.4545 20.2823C20.4545 20.3781 20.4217 20.4568 20.3823 20.4568C20.3429 20.4568 20.3106 20.5999 20.3106 20.7752C20.3106 20.9505 20.2783 21.1137 20.2384 21.138C20.1935 21.166 20.1667 21.892 20.1667 23.0795C20.1667 24.2963 20.1922 24.9762 20.2384 24.9762C20.2783 24.9762 20.3106 25.1214 20.3106 25.2993C20.3106 25.4767 20.3429 25.6219 20.3823 25.6219C20.4217 25.6219 20.4545 25.7198 20.4545 25.8395C20.4545 25.9667 20.4989 26.0742 20.5623 26.0981C20.6286 26.1236 20.6701 26.2328 20.6701 26.383C20.6701 26.5169 20.7024 26.6265 20.7419 26.6265C20.7817 26.6265 20.814 26.691 20.814 26.7696C20.814 26.8487 20.8463 26.9132 20.8858 26.9132C20.9256 26.9132 20.9579 26.9939 20.9579 27.0927C20.9579 27.2044 20.9986 27.2722 21.0658 27.2722C21.1329 27.2722 21.1736 27.3399 21.1736 27.4512C21.1736 27.55 21.2059 27.6308 21.2458 27.6308C21.2852 27.6308 21.3175 27.6835 21.3175 27.7479C21.3175 27.8124 21.3985 27.94 21.4975 28.0316C21.5961 28.1228 21.6771 28.2479 21.6771 28.309C21.6771 28.3697 21.7039 28.4199 21.7371 28.4199C21.7698 28.4199 21.8403 28.5007 21.8931 28.5994C21.946 28.6978 22.0324 28.7785 22.0849 28.7785C22.1377 28.7785 22.1805 28.8429 22.1805 28.922C22.1805 29.0011 22.2133 29.0656 22.2527 29.0656C22.2921 29.0656 22.3245 29.1003 22.3245 29.1425C22.3245 29.2258 22.5015 29.4241 22.5762 29.4241C22.6366 29.4241 22.8283 29.6154 22.8283 29.6752C22.8283 29.7497 23.0268 29.9263 23.1107 29.9263C23.1531 29.9263 23.1879 29.9589 23.1879 29.9982C23.1879 30.0376 23.2525 30.0698 23.3318 30.0698C23.4107 30.0698 23.4757 30.1045 23.4757 30.1468C23.4757 30.2459 23.6587 30.4288 23.7581 30.4288C23.8005 30.4288 23.8353 30.461 23.8353 30.5003C23.8353 30.5397 23.8852 30.5719 23.9465 30.5719C24.0077 30.5719 24.1328 30.6527 24.2246 30.7514C24.3161 30.8502 24.4441 30.9309 24.5091 30.9309C24.5737 30.9309 24.6266 30.9631 24.6266 31.0025C24.6266 31.0418 24.7076 31.0744 24.8066 31.0744C24.9182 31.0744 24.9861 31.115 24.9861 31.182C24.9861 31.2489 25.0541 31.2895 25.1661 31.2895C25.2651 31.2895 25.3457 31.3217 25.3457 31.3611C25.3457 31.4008 25.4107 31.433 25.4896 31.433C25.5689 31.433 25.6335 31.4652 25.6335 31.5046C25.6335 31.5443 25.7434 31.5765 25.8777 31.5765C26.0283 31.5765 26.1378 31.6176 26.163 31.6841C26.1873 31.7468 26.2952 31.7916 26.4227 31.7916C26.5427 31.7916 26.6409 31.8238 26.6409 31.8636C26.6409 31.9029 26.7865 31.9351 26.9644 31.9351C27.1423 31.9351 27.2883 31.9674 27.2883 32.0071C27.2883 32.1151 29.0135 32.0992 29.2514 31.9891C29.444 31.8996 29.5115 31.7916 29.3743 31.7916C29.3269 31.7916 29.3021 30.3208 29.3021 27.5232V23.2544H33.6417H37.9812L38.1377 23.0883L38.2942 22.9226V18.4613V14H32.9708C29.47 14 27.6478 14.0247 27.6478 14.0716Z" fill="#909090"/>
</g>
<defs>
<clipPath id="clip0_2015_1068">
<rect width="132" height="36" fill="white" transform="translate(20.1667 14)"/>
</clipPath>
</defs>
</svg>
