<svg width="229" height="64" viewBox="0 0 229 64" fill="none" xmlns="http://www.w3.org/2000/svg">
<g clip-path="url(#clip0_2015_1073)">
<path d="M38.5674 29.8601H33.2722V41.529H38.5674V29.8601Z" fill="#292929"/>
<path d="M157.798 27.0134H152.503V41.5155H157.798V27.0134Z" fill="#292929"/>
<path d="M157.798 22.4443H152.503V25.6335H157.798V22.4443Z" fill="#292929"/>
<path d="M69.2504 42.0103C67.9376 42.019 66.6362 41.7667 65.4221 41.2681C64.256 40.792 63.1984 40.0855 62.3128 39.1912C61.42 38.2798 60.7104 37.2062 60.2223 36.0284C59.6984 34.7693 59.4352 33.4174 59.4484 32.0542V31.9988C59.4387 30.6551 59.6971 29.323 60.2087 28.08C60.6944 26.8928 61.4041 25.8098 62.2993 24.8898C63.1991 23.9737 64.2752 23.2486 65.463 22.7582C66.7326 22.2358 68.0947 21.974 69.4679 21.9884C70.3634 21.9792 71.2568 22.0761 72.1294 22.2771C72.8906 22.4564 73.6251 22.7336 74.3146 23.102C74.964 23.4513 75.5665 23.8813 76.1076 24.3817C76.6372 24.8723 77.1148 25.4159 77.5328 26.0041L73.5685 29.1119C73.0742 28.4599 72.4675 27.9012 71.7766 27.4618C71.0622 27.0418 70.2433 26.8321 69.4145 26.8567C68.781 26.8488 68.154 26.9851 67.5813 27.2555C67.0364 27.516 66.5512 27.8858 66.1557 28.3417C65.7459 28.8203 65.4284 29.3705 65.2192 29.9645C64.9907 30.5997 64.8758 31.2699 64.8796 31.9448V31.9995C64.875 32.688 64.9899 33.372 65.2192 34.0214C65.4261 34.6203 65.7438 35.1752 66.1557 35.6573C66.5508 36.1136 67.0361 36.4834 67.5813 36.7435C68.154 37.0141 68.781 37.1505 69.4145 37.1423C69.8677 37.1469 70.3196 37.0915 70.7582 36.9775C71.1515 36.8738 71.5268 36.7116 71.8717 36.4964C72.2125 36.2811 72.5308 36.0323 72.8221 35.7539C73.1344 35.455 73.4291 35.1382 73.7045 34.8051L77.6688 37.665C77.2228 38.2811 76.7281 38.8605 76.1894 39.3978C75.6476 39.9355 75.0356 40.398 74.3701 40.7728C73.6527 41.1734 72.8859 41.4786 72.0892 41.6807C71.1612 41.9108 70.2076 42.0215 69.2515 42.0103" fill="#8D8D8D"/>
<path d="M82.4744 41.8412C81.8109 41.8476 81.1508 41.7468 80.5195 41.5428C79.9475 41.3582 79.4172 41.0636 78.9586 40.6757C78.5094 40.2894 78.1522 39.8078 77.9132 39.2662C77.6477 38.6506 77.5176 37.9853 77.5316 37.3152V37.2612C77.5171 36.5695 77.6611 35.8837 77.9527 35.256C78.2221 34.6914 78.6223 34.199 79.1203 33.8194C79.662 33.4197 80.2747 33.126 80.926 32.9541C81.696 32.7471 82.4908 32.6469 83.2882 32.656C83.9485 32.6537 84.6076 32.7126 85.257 32.8319C85.786 32.9254 86.3076 33.0567 86.8179 33.2247V32.9824C86.8371 32.6539 86.7825 32.3252 86.658 32.0204C86.5336 31.7156 86.3424 31.4424 86.0985 31.2209C85.6186 30.8055 84.881 30.5978 83.8855 30.5978C83.1736 30.5909 82.4632 30.6636 81.7675 30.8145C81.1112 30.9663 80.4669 31.1656 79.8397 31.4109L78.7807 27.7797C79.6377 27.429 80.5234 27.1524 81.428 26.9531C82.5132 26.7305 83.6195 26.6261 84.7273 26.6416C85.8626 26.615 86.9949 26.7705 88.0808 27.1023C88.9207 27.3653 89.6876 27.8199 90.3208 28.4302C90.8826 28.9734 91.2983 29.6491 91.5293 30.3949C91.7886 31.2699 91.9121 32.1792 91.8956 33.0915V41.5186H86.7915V40.0011C86.2534 40.6079 85.5871 41.088 84.8405 41.4067C84.094 41.7254 83.2858 41.8748 82.4744 41.844M84.3208 38.6189C84.9974 38.6488 85.6593 38.4156 86.1671 37.9684C86.4046 37.7427 86.5906 37.4685 86.7124 37.1646C86.8342 36.8607 86.889 36.5341 86.873 36.2072V35.5294C86.5796 35.4091 86.2748 35.3184 85.9632 35.2587C85.6013 35.1855 85.2329 35.1491 84.8636 35.1501C84.2392 35.109 83.62 35.2862 83.1123 35.6513C82.915 35.8081 82.7571 36.0086 82.651 36.2369C82.5449 36.4652 82.4936 36.7151 82.5011 36.9667V37.021C82.4894 37.244 82.53 37.4666 82.6196 37.6712C82.7092 37.8758 82.8453 38.0568 83.0173 38.1997C83.3883 38.4888 83.85 38.6374 84.3204 38.6192" fill="#8D8D8D"/>
<path d="M93.1723 26.853H98.3586V29.8067C98.724 28.8838 99.3115 28.0648 100.069 27.4221C100.793 26.826 101.771 26.5551 103.002 26.6093V32.0287H102.567C101.21 32.0287 100.169 32.4263 99.4453 33.2216C98.7215 34.0168 98.3594 35.2629 98.3589 36.96V41.5123H93.1723V26.853Z" fill="#8D8D8D"/>
<path d="M109.383 41.805C108.526 41.8077 107.679 41.6274 106.898 41.2765C106.112 40.9252 105.409 40.4128 104.835 39.7724C104.217 39.0736 103.738 38.2645 103.423 37.3878C103.057 36.3712 102.877 35.2971 102.893 34.217V34.1633C102.877 33.0714 103.051 31.9849 103.408 30.9524C103.715 30.0646 104.194 29.2454 104.816 28.5408C105.39 27.8979 106.091 27.3811 106.875 27.0232C107.649 26.6714 108.49 26.4911 109.34 26.4947C110.284 26.4564 111.221 26.6767 112.048 27.1316C112.718 27.5276 113.321 28.0259 113.836 28.6083V21.698H119.023V41.4807H113.836L113.863 39.5298C113.35 40.1498 112.746 40.6888 112.071 41.1287C111.261 41.6126 110.326 41.8482 109.383 41.8061M110.944 37.4972C111.344 37.5006 111.74 37.418 112.106 37.2548C112.466 37.0921 112.788 36.8563 113.052 36.5625C113.329 36.2536 113.544 35.895 113.687 35.5057C113.844 35.0762 113.922 34.6217 113.917 34.1644V34.1076C113.923 33.6546 113.845 33.2044 113.687 32.7798C113.542 32.3956 113.327 32.0418 113.052 31.7365C112.788 31.4426 112.466 31.2069 112.106 31.0442C111.739 30.8834 111.344 30.8003 110.944 30.8003C110.544 30.8003 110.148 30.8834 109.782 31.0442C109.424 31.2046 109.102 31.4349 108.835 31.7216C108.556 32.0258 108.336 32.3797 108.187 32.7649C108.021 33.1925 107.939 33.6478 107.944 34.1062V34.1606C107.939 34.619 108.021 35.0743 108.187 35.5019C108.338 35.8901 108.558 36.248 108.835 36.5587C109.099 36.8526 109.421 37.0884 109.782 37.251C110.147 37.4142 110.544 37.4969 110.944 37.4933" fill="#8D8D8D"/>
<path d="M126.273 41.8405C125.041 41.8431 123.815 41.665 122.634 41.312C121.446 40.9544 120.326 40.4003 119.322 39.6726L121.249 36.5572C122.052 37.0937 122.924 37.5176 123.842 37.8169C124.635 38.0828 125.464 38.2245 126.3 38.2371C127.169 38.2371 127.603 37.975 127.603 37.451V37.3984C127.603 37.1092 127.404 36.8834 127.006 36.7209C126.428 36.4996 125.839 36.3095 125.241 36.1515C124.549 35.9814 123.869 35.7688 123.204 35.5149C122.613 35.2942 122.056 34.9933 121.547 34.6208C121.05 34.2629 120.651 33.7866 120.385 33.2352C120.12 32.6838 119.996 32.0749 120.027 31.4639V31.4095C120.014 30.6933 120.167 29.9837 120.475 29.3364C120.764 28.7427 121.187 28.2235 121.71 27.8192C122.268 27.3963 122.898 27.0795 123.571 26.8846C124.333 26.661 125.125 26.5513 125.919 26.5592C127.003 26.5589 128.081 26.7094 129.123 27.0065C130.13 27.2858 131.09 27.7103 131.974 28.2665L130.209 31.5186C129.474 31.1141 128.701 30.7827 127.901 30.5293C127.244 30.3066 126.558 30.1834 125.864 30.1637C125.552 30.1426 125.241 30.2132 124.968 30.3669C124.88 30.4177 124.805 30.4906 124.753 30.5784C124.701 30.6662 124.672 30.766 124.67 30.8682V30.9225C124.67 31.2119 124.874 31.4427 125.281 31.6148C125.688 31.787 126.281 31.9902 127.059 32.2244C127.783 32.4231 128.462 32.6444 129.096 32.8883C129.686 33.1088 130.244 33.4096 130.752 33.7824C131.213 34.1241 131.594 34.5635 131.865 35.0691C132.15 35.6311 132.29 36.2551 132.272 36.8847V36.9394C132.289 37.6719 132.141 38.3989 131.838 39.0665C131.555 39.664 131.136 40.1879 130.616 40.5972C130.052 41.0323 129.405 41.3501 128.716 41.5318C127.919 41.7463 127.097 41.8512 126.272 41.8433" fill="#8D8D8D"/>
<path d="M159.237 26.853H164.424V29.8067C164.789 28.8838 165.376 28.0648 166.134 27.4221C166.858 26.826 167.836 26.5551 169.067 26.6093V32.0287H168.632C167.275 32.0287 166.234 32.4263 165.51 33.2216C164.786 34.0168 164.424 35.2629 164.424 36.96V41.5123H159.237V26.853Z" fill="#292929"/>
<path d="M176.777 41.8678C175.693 41.8816 174.616 41.6938 173.601 41.3139C172.679 40.9666 171.834 40.4407 171.116 39.7666C170.408 39.092 169.852 38.2746 169.486 37.3688C169.087 36.379 168.889 35.3202 168.902 34.2534V34.1994C168.894 33.1763 169.078 32.1607 169.445 31.2052C169.792 30.2998 170.313 29.4711 170.979 28.7662C171.644 28.068 172.443 27.5105 173.328 27.1268C174.271 26.722 175.289 26.519 176.315 26.5307C177.449 26.5039 178.576 26.726 179.614 27.1812C180.505 27.5835 181.294 28.1808 181.923 28.9289C182.539 29.6799 183.001 30.5456 183.28 31.4759C183.583 32.4729 183.734 33.5098 183.728 34.5518V35.0665C183.728 35.2476 183.719 35.4283 183.701 35.6086H173.872C174.014 36.3305 174.415 36.9761 174.999 37.4242C175.601 37.8367 176.319 38.0456 177.049 38.0203C177.634 38.0266 178.213 37.9064 178.746 37.6679C179.33 37.384 179.859 36.9986 180.307 36.5297L183.158 38.887C182.452 39.7906 181.558 40.5303 180.538 41.055C179.369 41.6257 178.078 41.9046 176.777 41.8678ZM178.895 32.9799C178.845 32.2617 178.559 31.5801 178.08 31.0415C177.858 30.8055 177.588 30.6194 177.289 30.4955C176.989 30.3717 176.666 30.313 176.342 30.3232C176.026 30.3131 175.712 30.3722 175.421 30.4963C175.13 30.6204 174.87 30.8065 174.659 31.0415C174.191 31.5923 173.89 32.2646 173.79 32.9799H178.895Z" fill="#292929"/>
<path d="M191.658 41.8674C190.637 41.8766 189.625 41.6823 188.681 41.2959C187.736 40.9095 186.879 40.3389 186.159 39.6174C184.756 38.1825 183.971 36.2567 183.973 34.252V34.198C183.96 32.6931 184.399 31.2187 185.234 29.9653C186.068 28.7118 187.26 27.7369 188.656 27.1662C189.668 26.7511 190.753 26.5437 191.847 26.5563C193.172 26.5086 194.485 26.8174 195.648 27.4504C196.651 28.0364 197.499 28.8542 198.119 29.8351L194.616 32.4361C194.297 31.9907 193.902 31.6053 193.448 31.2979C192.974 31.0115 192.427 30.8702 191.873 30.8915C191.474 30.8876 191.079 30.9757 190.719 31.1491C190.37 31.3179 190.06 31.5578 189.809 31.8535C189.551 32.1589 189.349 32.5074 189.212 32.883C189.064 33.2866 188.99 33.7134 188.994 34.143V34.197C188.99 34.6446 189.064 35.0897 189.212 35.5124C189.344 35.8981 189.547 36.2563 189.809 36.5692C190.069 36.8755 190.394 37.1206 190.76 37.2868C191.126 37.4531 191.525 37.5364 191.927 37.5308C192.476 37.5486 193.018 37.4075 193.488 37.1244C193.958 36.8142 194.383 36.4402 194.751 36.0132L198.2 38.5055C197.531 39.4989 196.65 40.3319 195.62 40.9446C194.588 41.5584 193.267 41.8654 191.656 41.8657" fill="#292929"/>
<path d="M204.527 41.7899C202.962 41.7899 201.743 41.4196 200.869 40.6791C199.995 39.9385 199.559 38.6924 199.559 36.9406V30.9781H197.821V26.8319H199.559V23.1194H204.746V26.8319H208.167V30.9781H204.746V35.9368C204.726 36.1382 204.747 36.3416 204.807 36.5347C204.868 36.7279 204.967 36.9069 205.098 37.0611C205.393 37.308 205.774 37.4297 206.158 37.4C206.498 37.401 206.836 37.3553 207.164 37.2643C207.49 37.1741 207.808 37.0564 208.114 36.9126V40.9498C207.607 41.217 207.069 41.4217 206.512 41.5593C205.863 41.7189 205.197 41.7964 204.529 41.7899" fill="#292929"/>
<path d="M58.0228 28.0515C57.5561 26.9058 56.8421 25.877 55.9315 25.0382C54.9564 24.1586 53.8103 23.4889 52.5645 23.0707C51.0996 22.5816 49.562 22.3442 48.0175 22.3687H40.6848V27.102H48.1059C49.6862 27.102 50.9581 27.5289 51.9214 28.3827C52.8848 29.2366 53.3662 30.4336 53.3658 31.9737V32.0288C53.3658 33.5883 52.8843 34.7899 51.9214 35.6336C50.9585 36.4773 49.6867 36.8993 48.1059 36.8995H45.9526V29.7819H40.6848V41.6318H47.9082C49.464 41.6554 51.012 41.4086 52.483 40.9024C53.7458 40.4681 54.9059 39.7797 55.8913 38.8799C56.8113 38.022 57.5339 36.9752 58.0092 35.8115C58.5065 34.5836 58.7556 33.2697 58.7421 31.9454V31.8903C58.757 30.576 58.5125 29.2716 58.0228 28.0515Z" fill="#292929"/>
<path d="M150.671 28.0515C150.204 26.9059 149.49 25.8771 148.579 25.0382C147.604 24.1586 146.458 23.4888 145.213 23.0707C143.748 22.5815 142.21 22.3441 140.665 22.3687H133.332V27.102H140.753C142.334 27.102 143.606 27.5289 144.569 28.3827C145.532 29.2366 146.013 30.4336 146.013 31.9737V32.0288C146.013 33.5883 145.532 34.7899 144.569 35.6336C143.606 36.4773 142.334 36.8993 140.753 36.8995H138.6V29.7819H133.332V41.6318H140.555C142.111 41.6554 143.66 41.4086 145.131 40.9024C146.394 40.4681 147.553 39.7797 148.539 38.8799C149.459 38.0222 150.182 36.9753 150.657 35.8116C151.154 34.5837 151.403 33.2697 151.39 31.9454V31.8903C151.405 30.576 151.16 29.2716 150.671 28.0515Z" fill="#292929"/>
<path d="M65.2232 47.1415H24.3772C22.0616 47.1415 20.1667 45.1214 20.1667 42.6526V45.7981C20.17 46.9115 20.6146 47.9784 21.4035 48.7657C22.1925 49.553 23.2615 49.9968 24.3772 50H65.2232C66.3389 49.9968 67.4079 49.553 68.1969 48.7657C68.9858 47.9784 69.4305 46.9115 69.4338 45.7981V42.6526C69.4338 45.1214 67.5392 47.1415 65.2232 47.1415Z" fill="#292929"/>
<path d="M65.2232 14H24.3772C23.2614 14.003 22.192 14.4467 21.4029 15.234C20.6137 16.0213 20.1689 17.0884 20.1656 18.202V21.3475C20.1656 18.8783 22.0605 16.8585 24.3762 16.8585H65.2232C67.5392 16.8585 69.4338 18.8783 69.4338 21.3475V18.202C69.4305 17.0885 68.9858 16.0217 68.1969 15.2344C67.4079 14.447 66.3389 14.0033 65.2232 14Z" fill="#292929"/>
<path d="M35.9194 25.8984L32.9741 27.9604L34.0283 24.5283L31.1552 22.3686L34.7518 22.3084L35.9204 18.9133L37.0893 22.3084L40.686 22.3686L37.8118 24.5273L38.8646 27.9604L35.9194 25.8984Z" fill="#8D8D8D"/>
</g>
<defs>
<clipPath id="clip0_2015_1073">
<rect width="188" height="36" fill="white" transform="translate(20.1667 14)"/>
</clipPath>
</defs>
</svg>
