<svg width="229" height="64" viewBox="0 0 229 64" fill="none" xmlns="http://www.w3.org/2000/svg">
<path fill-rule="evenodd" clip-rule="evenodd" d="M79.6933 23.2355L79.9445 23.684C80.2607 24.2289 80.4277 24.8476 80.4288 25.4776V39.3791C80.4236 40.0086 80.2568 40.6262 79.9445 41.1728L79.6754 41.6213C79.3682 42.1703 78.9149 42.6234 78.3661 42.9307L66.33 49.8903C65.785 50.2065 65.1664 50.3735 64.5363 50.3747H64.0341C63.4031 50.3806 62.7826 50.213 62.2403 49.8903L50.1865 42.9487C49.6492 42.6261 49.1995 42.1765 48.877 41.6392L48.6259 41.1908C48.3098 40.6457 48.1427 40.0271 48.1416 39.397V25.4955C48.1427 24.8656 48.3098 24.2468 48.6259 23.7019L48.877 23.2535C49.1914 22.7099 49.6429 22.2583 50.1865 21.944L62.2224 14.9843C62.7674 14.6682 63.386 14.5011 64.0161 14.5H64.5363C65.1664 14.5011 65.785 14.6682 66.33 14.9843L78.3661 21.9261C78.9127 22.2425 79.3695 22.6932 79.6933 23.2355ZM64.5363 18.0874H64.0161L53.5228 24.1502L64.2852 30.3565L75.0476 24.1502L64.5363 18.0874ZM76.5722 39.8276L66.0789 45.8905V33.4778L76.8413 27.2536V39.3792L76.5722 39.8276ZM127.205 41.0475H123.485V21.4169H127.205V41.0475ZM93.6416 41.4683H97.8002V34.3392H99.6083L104.025 41.4683H108.468L103.586 33.6161C105.756 32.9703 107.383 31.498 107.383 28.7084V28.605C107.383 24.7823 104.619 23 100.254 23H93.6416V41.4683ZM97.8002 31.498V26.2029H100.151C102.165 26.2029 103.302 26.8487 103.302 28.7342V28.8375C103.302 30.6198 102.243 31.498 100.151 31.498H97.8002ZM115.222 41.3309C118.916 41.3309 121.24 39.7037 121.68 36.7849H118.141C117.908 37.9214 117.056 38.6705 115.326 38.6705C113.285 38.6705 112.071 37.379 111.968 35.1318H121.705V34.0986C121.705 29.2684 118.606 27.2279 115.119 27.2279C111.193 27.2279 108.171 29.9917 108.171 34.2536V34.4602C108.171 38.7738 111.141 41.3309 115.222 41.3309ZM112.019 32.833C112.303 30.9215 113.44 29.8109 115.119 29.8109C116.901 29.8109 117.934 30.7924 118.063 32.833H112.019ZM134.34 41.332C136.562 41.332 137.93 40.2988 138.628 38.9299V41.0479H142.347V27.5389H138.628V35.4687C138.628 37.4576 137.388 38.4391 135.813 38.4391C134.211 38.4391 133.462 37.5609 133.462 35.727V27.5389H129.742V36.2436C129.742 39.7822 131.705 41.332 134.34 41.332ZM148.632 41.0468H144.886V27.5378H148.632V29.6042C149.303 28.3385 150.75 27.2279 152.765 27.2279C154.547 27.2279 155.89 27.977 156.536 29.5784C157.621 27.9511 159.377 27.2279 161.082 27.2279C163.588 27.2279 165.525 28.8035 165.525 32.3939V41.0468H161.805V32.8071C161.805 31.0765 161.03 30.3016 159.687 30.3016C158.241 30.3016 157.079 31.2315 157.079 33.0654V41.0468H153.359V32.8071C153.359 31.0765 152.558 30.3016 151.241 30.3016C149.794 30.3016 148.632 31.2315 148.632 33.0654V41.0468ZM174.173 41.3309C177.867 41.3309 180.192 39.7037 180.631 36.7849H177.092C176.859 37.9214 176.007 38.6705 174.276 38.6705C172.236 38.6705 171.022 37.379 170.919 35.1318H180.657V34.0986C180.657 29.2684 177.557 27.2279 174.07 27.2279C170.144 27.2279 167.121 29.9917 167.121 34.2536V34.4602C167.121 38.7738 170.092 41.3309 174.173 41.3309ZM170.971 32.833C171.255 30.9215 172.392 29.8109 174.07 29.8109C175.852 29.8109 176.886 30.7924 177.015 32.833H170.971Z" fill="black"/>
</svg>
