<svg width="143" height="40" viewBox="0 0 143 40" fill="none" xmlns="http://www.w3.org/2000/svg">
<path fill-rule="evenodd" clip-rule="evenodd" d="M36.5517 11.2355L36.8029 11.684C37.1191 12.2289 37.2861 12.8476 37.2872 13.4776V27.3791C37.282 28.0086 37.1152 28.6262 36.8029 29.1728L36.5338 29.6213C36.2266 30.1703 35.7733 30.6234 35.2245 30.9307L23.1884 37.8903C22.6434 38.2065 22.0248 38.3735 21.3947 38.3747H20.8925C20.2615 38.3806 19.641 38.213 19.0987 37.8903L7.04486 30.9487C6.50761 30.6261 6.05792 30.1765 5.73543 29.6392L5.48431 29.1908C5.16816 28.6457 5.00112 28.0271 5 27.397V13.4955C5.00112 12.8656 5.16816 12.2468 5.48431 11.7019L5.73543 11.2535C6.04979 10.7099 6.50131 10.2583 7.04486 9.94403L19.0808 2.98431C19.6258 2.66817 20.2444 2.50114 20.8745 2.5H21.3947C22.0248 2.50114 22.6434 2.66817 23.1884 2.98431L35.2245 9.92609C35.7711 10.2425 36.2279 10.6932 36.5517 11.2355ZM21.3947 6.08739H20.8745L10.3812 12.1502L21.1436 18.3565L31.906 12.1502L21.3947 6.08739ZM33.4306 27.8276L22.9373 33.8905V21.4778L33.6997 15.2536V27.3792L33.4306 27.8276ZM84.0633 29.0475H80.3438V9.41687H84.0633V29.0475ZM50.5 29.4683H54.6586V22.3392H56.4667L60.8836 29.4683H65.3263L60.4445 21.6161C62.6142 20.9703 64.2415 19.498 64.2415 16.7084V16.605C64.2415 12.7823 61.4777 11 57.1124 11H50.5V29.4683ZM54.6586 19.498V14.2029H57.0091C59.0239 14.2029 60.1604 14.8487 60.1604 16.7342V16.8375C60.1604 18.6198 59.1014 19.498 57.0091 19.498H54.6586ZM72.0806 29.3309C75.7742 29.3309 78.0989 27.7037 78.538 24.7849H74.9993C74.7668 25.9214 73.9145 26.6705 72.1839 26.6705C70.1433 26.6705 68.9294 25.379 68.826 23.1318H78.5639V22.0986C78.5639 17.2684 75.4643 15.2279 71.9772 15.2279C68.0511 15.2279 65.029 17.9917 65.029 22.2536V22.4602C65.029 26.7738 67.9994 29.3309 72.0806 29.3309ZM68.8777 20.833C69.1618 18.9215 70.2983 17.8109 71.9772 17.8109C73.7595 17.8109 74.7927 18.7924 74.9219 20.833H68.8777ZM91.1985 29.332C93.4201 29.332 94.7886 28.2988 95.486 26.9299V29.0479H99.2056V15.5389H95.486V23.4687C95.486 25.4576 94.2461 26.4391 92.6711 26.4391C91.0698 26.4391 90.32 25.5609 90.32 23.727V15.5389H86.6009V24.2436C86.6009 27.7822 88.5639 29.332 91.1985 29.332ZM105.491 29.0468H101.745V15.5378H105.491V17.6042C106.162 16.3385 107.608 15.2279 109.623 15.2279C111.406 15.2279 112.749 15.977 113.395 17.5784C114.479 15.9511 116.236 15.2279 117.94 15.2279C120.446 15.2279 122.383 16.8035 122.383 20.3939V29.0468H118.664V20.8071C118.664 19.0765 117.888 18.3016 116.545 18.3016C115.099 18.3016 113.937 19.2315 113.937 21.0654V29.0468H110.217V20.8071C110.217 19.0765 109.417 18.3016 108.099 18.3016C106.653 18.3016 105.491 19.2315 105.491 21.0654V29.0468ZM131.031 29.3309C134.726 29.3309 137.051 27.7037 137.489 24.7849H133.95C133.718 25.9214 132.865 26.6705 131.135 26.6705C129.094 26.6705 127.881 25.379 127.777 23.1318H137.515V22.0986C137.515 17.2684 134.415 15.2279 130.928 15.2279C127.002 15.2279 123.98 17.9917 123.98 22.2536V22.4602C123.98 26.7738 126.95 29.3309 131.031 29.3309ZM127.829 20.833C128.113 18.9215 129.25 17.8109 130.928 17.8109C132.711 17.8109 133.744 18.7924 133.873 20.833H127.829Z" fill="black"/>
</svg>
