<svg width="132" height="64" viewBox="0 0 132 64" fill="none" xmlns="http://www.w3.org/2000/svg">
<path d="M74.8858 16.6028H73.1546L66.7378 26.839L60.321 16.6028H58.5738V47.3975H60.321L66.7378 37.1621L73.1546 47.3975H74.9097L74.8858 47.3722V16.6028Z" fill="#6E6E6E"/>
<path d="M58.5738 16.6028H49.0597L58.5658 31.9997L49.0597 47.3975H58.5738V16.6028Z" fill="#414141"/>
<path d="M84.4078 16.6028H74.8858V47.3722L74.9097 47.3975L84.4078 47.3959L74.9097 31.9997L84.4078 16.6028Z" fill="#404040"/>
<path d="M100.347 29.027C100.347 30.8531 99.489 32.9535 97.2494 32.9535H84.4238V24.2424H96.4393C99.3142 24.2424 100.347 25.4309 100.347 27.5106V29.027ZM97.972 16.6028H84.4078L74.9097 31.9997L84.4078 47.3959V40.5939H100.458C107.2 40.5939 109.217 35.3304 109.217 30.7465V27.1282C109.217 21.1006 107.025 16.6028 97.972 16.6028Z" fill="#989898"/>
<path d="M58.5658 31.9997L49.0597 16.6028V16.6021V35.2119L32.9621 16.6021H23.448V47.3975L32.9701 47.3959L32.9621 28.7884L49.0597 47.3975L58.5658 31.9997Z" fill="#828282"/>
</svg>
