<svg width="201" height="64" viewBox="0 0 201 64" fill="none" xmlns="http://www.w3.org/2000/svg">
<path fill-rule="evenodd" clip-rule="evenodd" d="M69.2831 20.75L57.7736 43.25H46.9629L51.7796 33.925H51.5635C47.5898 39.0835 41.6608 42.4794 33.2129 43.25V34.0541C33.2129 34.0541 38.6172 33.7349 41.7942 30.3947H33.2129V20.7502H42.8574V28.6826L43.0739 28.6818L47.015 20.7502H54.3089V28.6323L54.5253 28.632L58.6143 20.75H69.2831Z" fill="black"/>
<path d="M132.046 40.7665H135.152V22.9375H132.046V40.7665Z" fill="black"/>
<path fill-rule="evenodd" clip-rule="evenodd" d="M114.922 40.5844C115.597 40.8651 116.284 41.0054 116.981 41.0054C118.134 41.0054 119.166 40.7248 120.076 40.1634C120.986 39.6022 121.692 38.8286 122.192 37.8424C122.693 36.8488 122.943 35.7223 122.943 34.4632C122.943 33.2041 122.685 32.0777 122.17 31.084C121.654 30.0904 120.937 29.3205 120.019 28.7744C119.101 28.2206 118.058 27.9476 116.89 27.9552C116.147 27.9552 115.434 28.0993 114.751 28.3875C114.069 28.6758 113.5 29.0854 113.045 29.6163C113.01 29.6567 112.975 29.6976 112.942 29.7388V22.9489H109.825V40.7666H112.92L112.913 39.1021C112.993 39.2002 113.079 39.2961 113.17 39.3898C113.663 39.8981 114.247 40.2962 114.922 40.5844ZM118.108 37.7059C117.6 38.0169 117.019 38.1724 116.367 38.1724C115.722 38.1724 115.131 38.0131 114.592 37.6946C114.053 37.3683 113.625 36.9247 113.306 36.3633C112.995 35.8021 112.84 35.1648 112.84 34.4518C112.832 33.7388 112.984 33.1017 113.295 32.5404C113.614 31.9715 114.042 31.5316 114.581 31.2206C115.119 30.902 115.715 30.7465 116.367 30.7541C117.019 30.7465 117.6 30.8982 118.108 31.2092C118.624 31.5126 119.018 31.9488 119.291 32.5176C119.572 33.0789 119.712 33.7237 119.712 34.4518C119.712 35.1801 119.572 35.8248 119.291 36.3861C119.018 36.9474 118.624 37.3873 118.108 37.7059Z" fill="black"/>
<path d="M73.783 24.0184H77.3328L80.5083 35.6154L83.8865 24.0184H86.8447L90.5083 35.3827L93.5576 24.0184H96.8116L92.0102 40.7665H88.9496L85.2241 29.6645L81.8043 40.7665H78.7096L73.783 24.0184Z" fill="black"/>
<path fill-rule="evenodd" clip-rule="evenodd" d="M102.054 41.0623C100.818 41.0699 99.7027 40.7968 98.709 40.2431C97.7229 39.6818 96.9455 38.9043 96.3765 37.9106C95.8153 36.917 95.5347 35.783 95.5347 34.5086C95.5347 33.2723 95.8229 32.1535 96.3994 31.1523C96.9758 30.151 97.757 29.3697 98.7432 28.8084C99.7293 28.2471 100.829 27.9665 102.043 27.9665C103.408 27.9665 104.603 28.2699 105.627 28.8767C106.658 29.4835 107.428 30.3444 107.936 31.4595C108.452 32.5669 108.638 33.8374 108.494 35.271H98.748C98.7753 35.8421 98.9178 36.3618 99.1755 36.8298C99.4638 37.3455 99.8658 37.7475 100.382 38.0358C100.897 38.324 101.474 38.4681 102.111 38.4681C102.596 38.4605 103.048 38.3771 103.465 38.2179C103.882 38.051 104.235 37.8273 104.523 37.5465C104.819 37.2659 105.028 36.9474 105.149 36.5909H108.403C108.206 37.4631 107.811 38.2406 107.22 38.9233C106.628 39.5984 105.885 40.1255 104.99 40.5048C104.095 40.884 103.116 41.0699 102.054 41.0623ZM99.1869 32.1421C99.0052 32.4591 98.8792 32.8004 98.809 33.1661H105.269C105.223 32.7041 105.08 32.2832 104.842 31.9032C104.569 31.4557 104.197 31.1105 103.727 30.8678C103.256 30.6175 102.725 30.4924 102.134 30.4924C101.504 30.4924 100.932 30.6365 100.416 30.9247C99.8999 31.2129 99.4903 31.6188 99.1869 32.1421Z" fill="black"/>
<path d="M125.231 28.2282C125.231 27.2118 125.462 26.3092 125.925 25.5203C126.387 24.7239 127.036 24.1057 127.87 23.6657C128.712 23.2182 129.695 22.9868 130.817 22.9717V25.7365C130.294 25.7441 129.846 25.854 129.475 26.0664C129.11 26.2712 128.83 26.5708 128.633 26.9653C128.451 27.3284 128.353 27.7494 128.339 28.2282H130.749V30.8565H128.337V40.7665H125.231V30.8565H123.228V28.2282H125.231Z" fill="black"/>
<path fill-rule="evenodd" clip-rule="evenodd" d="M143.048 41.0395C141.781 41.0395 140.647 40.7626 139.646 40.209C138.652 39.6476 137.871 38.874 137.302 37.8878C136.741 36.8942 136.46 35.7678 136.46 34.5086C136.46 33.242 136.741 32.1117 137.302 31.1181C137.871 30.1168 138.652 29.3393 139.646 28.7856C140.647 28.2319 141.781 27.955 143.048 27.955C144.322 27.955 145.46 28.2319 146.461 28.7856C147.47 29.3393 148.255 30.113 148.816 31.1067C149.377 32.1003 149.662 33.2343 149.67 34.5086C149.662 35.7678 149.377 36.8942 148.816 37.8878C148.262 38.874 147.481 39.6476 146.472 40.209C145.464 40.7626 144.322 41.0395 143.048 41.0395ZM143.048 38.1837C143.715 38.1837 144.307 38.032 144.823 37.7286C145.338 37.4176 145.737 36.9852 146.017 36.4315C146.298 35.8702 146.438 35.2292 146.438 34.5086C146.438 33.7805 146.298 33.1357 146.017 32.5744C145.737 32.0131 145.338 31.5808 144.823 31.2774C144.307 30.9664 143.715 30.8109 143.048 30.8109C142.388 30.8109 141.8 30.9664 141.284 31.2774C140.776 31.5808 140.381 32.0131 140.101 32.5744C139.82 33.1357 139.684 33.7805 139.691 34.5086C139.691 35.2292 139.832 35.8702 140.112 36.4315C140.4 36.9852 140.795 37.4176 141.295 37.7286C141.804 38.032 142.388 38.1837 143.048 38.1837Z" fill="black"/>
<path d="M153.026 28.2282H149.567L153.311 40.7665H156.337L158.799 32.7583L161.457 40.7665H164.438L168.193 28.2282H165.064L162.934 36.0325L160.58 28.2282H157.554L155.212 36.2044L153.026 28.2282Z" fill="black"/>
</svg>
