<svg width="103" height="64" viewBox="0 0 103 64" fill="none" xmlns="http://www.w3.org/2000/svg">
<g clip-path="url(#clip0_2015_1061)">
<path d="M31.9506 55.8949V52.7093C31.9506 51.4908 31.214 50.6928 29.9495 50.6928C29.3173 50.6928 28.6298 50.9031 28.1571 51.5959C27.7889 51.0145 27.261 50.6928 26.4691 50.6928C25.9412 50.6928 25.4134 50.8537 24.996 51.4351V50.798H23.8911V55.8949H24.996V53.0805C24.996 52.1774 25.4686 51.7506 26.2052 51.7506C26.9418 51.7506 27.3101 52.2269 27.3101 53.0805V55.8949H28.415V53.0805C28.415 52.1774 28.9428 51.7506 29.6242 51.7506C30.3608 51.7506 30.7291 52.2269 30.7291 53.0805V55.8949H31.9506ZM48.3397 50.798H46.5473V49.2578H45.4424V50.798H44.4419V51.8062H45.4424V54.1444C45.4424 55.3135 45.9151 56.0001 47.1796 56.0001C47.6522 56.0001 48.1801 55.8392 48.5484 55.6289L48.2292 54.6702C47.91 54.8805 47.5417 54.9361 47.2778 54.9361C46.7499 54.9361 46.5412 54.6145 46.5412 54.0887V51.8062H48.3336V50.798H48.3397ZM57.7189 50.6866C57.0867 50.6866 56.6632 51.0083 56.3992 51.4289V50.7918H55.2943V55.8887H56.3992V53.0186C56.3992 52.1712 56.7675 51.6887 57.455 51.6887C57.6637 51.6887 57.9276 51.7444 58.1425 51.7939L58.4617 50.7299C58.2407 50.6866 57.9276 50.6866 57.7189 50.6866ZM43.5457 51.2186C43.0178 50.8475 42.2812 50.6866 41.4894 50.6866C40.2249 50.6866 39.384 51.3238 39.384 52.332C39.384 53.1794 40.0162 53.6619 41.1211 53.8165L41.649 53.8722C42.226 53.9774 42.5452 54.1382 42.5452 54.4042C42.5452 54.7753 42.1217 55.0413 41.3851 55.0413C40.6485 55.0413 40.0653 54.7753 39.697 54.5093L39.1692 55.3568C39.7462 55.7836 40.538 55.9939 41.3298 55.9939C42.803 55.9939 43.6501 55.3011 43.6501 54.3485C43.6501 53.4454 42.9626 52.9691 41.913 52.8083L41.3851 52.7526C40.9124 52.697 40.5441 52.5918 40.5441 52.2763C40.5441 51.9052 40.9124 51.6949 41.4956 51.6949C42.1278 51.6949 42.76 51.9609 43.0792 52.1217L43.5457 51.2186ZM72.9418 50.6866C72.3095 50.6866 71.886 51.0083 71.6221 51.4289V50.7918H70.5172V55.8887H71.6221V53.0186C71.6221 52.1712 71.9903 51.6887 72.6778 51.6887C72.8865 51.6887 73.1505 51.7444 73.3653 51.7939L73.6845 50.7423C73.4697 50.6866 73.1566 50.6866 72.9418 50.6866ZM58.8238 53.3464C58.8238 54.8866 59.8796 56.0001 61.5124 56.0001C62.249 56.0001 62.7768 55.8392 63.3047 55.4186L62.7768 54.5155C62.3533 54.8372 61.9359 54.9918 61.4571 54.9918C60.5609 54.9918 59.9287 54.3547 59.9287 53.3464C59.9287 52.3877 60.5609 51.7506 61.4571 51.7011C61.9298 51.7011 62.3533 51.8619 62.7768 52.1774L63.3047 51.2743C62.7768 50.8475 62.249 50.6928 61.5124 50.6928C59.8796 50.6867 58.8238 51.8062 58.8238 53.3464ZM69.044 53.3464V50.798H67.9391V51.4351C67.5708 50.9588 67.0429 50.6928 66.3554 50.6928C64.9314 50.6928 63.8265 51.8062 63.8265 53.3464C63.8265 54.8866 64.9314 56.0001 66.3554 56.0001C67.092 56.0001 67.6199 55.7341 67.9391 55.2578V55.8949H69.044V53.3464ZM64.9866 53.3464C64.9866 52.4433 65.5636 51.7011 66.515 51.7011C67.4112 51.7011 68.0435 52.3939 68.0435 53.3464C68.0435 54.2495 67.4112 54.9918 66.515 54.9918C65.5697 54.9361 64.9866 54.2433 64.9866 53.3464ZM51.7648 50.6866C50.2917 50.6866 49.2359 51.7506 49.2359 53.3403C49.2359 54.9361 50.2917 55.9939 51.8201 55.9939C52.5567 55.9939 53.2933 55.7836 53.8764 55.3011L53.3485 54.5031C52.925 54.8248 52.3971 55.0351 51.8753 55.0351C51.1878 55.0351 50.5065 54.7135 50.3469 53.8165H54.0851C54.0851 53.6557 54.0851 53.5506 54.0851 53.3897C54.1342 51.7506 53.1828 50.6866 51.7648 50.6866ZM51.7648 51.6454C52.4523 51.6454 52.925 52.0722 53.0293 52.864H50.396C50.5004 52.1774 50.973 51.6454 51.7648 51.6454ZM79.2151 53.3464V48.7815H78.1102V51.4351C77.7419 50.9588 77.214 50.6928 76.5265 50.6928C75.1024 50.6928 73.9976 51.8062 73.9976 53.3464C73.9976 54.8866 75.1024 56.0001 76.5265 56.0001C77.2631 56.0001 77.791 55.7341 78.1102 55.2578V55.8949H79.2151V53.3464ZM75.1577 53.3464C75.1577 52.4433 75.7347 51.7011 76.6861 51.7011C77.5823 51.7011 78.2145 52.3939 78.2145 53.3464C78.2145 54.2495 77.5823 54.9918 76.6861 54.9918C75.7347 54.9361 75.1577 54.2433 75.1577 53.3464ZM38.1686 53.3464V50.798H37.0637V51.4351C36.6954 50.9588 36.1676 50.6928 35.4801 50.6928C34.056 50.6928 32.9511 51.8062 32.9511 53.3464C32.9511 54.8866 34.056 56.0001 35.4801 56.0001C36.2167 56.0001 36.7445 55.7341 37.0637 55.2578V55.8949H38.1686V53.3464ZM34.0621 53.3464C34.0621 52.4433 34.6391 51.7011 35.5906 51.7011C36.4867 51.7011 37.119 52.3939 37.119 53.3464C37.119 54.2495 36.4867 54.9918 35.5906 54.9918C34.6391 54.9361 34.0621 54.2433 34.0621 53.3464Z" fill="black"/>
<path d="M59.7769 12.0884H43.1791V42.1379H59.7769V12.0884Z" fill="#828282"/>
<path d="M44.2823 27.1132C44.2823 21.008 47.1305 15.5894 51.5009 12.0884C48.2845 9.53996 44.2271 7.99976 39.8014 7.99976C29.3173 7.99976 20.8342 16.5482 20.8342 27.1132C20.8342 37.6781 29.3173 46.2266 39.8014 46.2266C44.2271 46.2266 48.2845 44.6864 51.5009 42.1379C47.1243 38.6864 44.2823 33.2183 44.2823 27.1132Z" fill="#3B3B3B"/>
<path d="M82.1678 27.1132C82.1678 37.6781 73.6847 46.2266 63.2006 46.2266C58.7749 46.2266 54.7176 44.6864 51.5011 42.1379C55.9268 38.6307 58.7197 33.2183 58.7197 27.1132C58.7197 21.008 55.8716 15.5894 51.5011 12.0884C54.7114 9.53996 58.7688 7.99976 63.1945 7.99976C73.6847 7.99976 82.1678 16.6039 82.1678 27.1132Z" fill="#BDBDBD"/>
</g>
<defs>
<clipPath id="clip0_2015_1061">
<rect width="61.3333" height="48" fill="white" transform="translate(20.8333 8)"/>
</clipPath>
</defs>
</svg>
